<?xml version="1.0" encoding="UTF-8" standalone="no"?>
<!DOCTYPE svg  PUBLIC '-//W3C//DTD SVG 1.1//EN'  'http://www.w3.org/Graphics/SVG/1.1/DTD/svg11.dtd'>
<svg xmlns="http://www.w3.org/2000/svg">
<defs>
<font id="Arial-Black" horiz-adv-x="1366">
<font-face underline-position="-195" font-weight="900" descent="-410" panose-1="2 11 10 4 2 1 2 2 2 4" units-per-em="2048" unicode-range="U+0020-2666" bbox="-397 -431 2060 1870" x-height="1062" underline-thickness="123" font-family="Arial" ascent="1638" cap-height="1466"/>
<missing-glyph d="M68 0v1365h544v-1365h-544zM136 68h408v1229h-408v-1229z" horiz-adv-x="748"/>
<glyph glyph-name=".notdef" d="M68 0v1365h544v-1365h-544zM136 68h408v1229h-408v-1229z" horiz-adv-x="748"/>
<glyph glyph-name=".null" horiz-adv-x="0"/>
<glyph glyph-name="glyph2" horiz-adv-x="2048"/>
<glyph glyph-name="space" horiz-adv-x="683" unicode=" "/>
<glyph glyph-name="exclam" horiz-adv-x="682" unicode="!" d="M139 359h406v-359h-406v359zM124 1466h435v-334l-84 -671h-269l-82 671v334z"/>
<glyph glyph-name="quotedbl" horiz-adv-x="1024" unicode='&quot;' d="M48 1466h406v-242l-64 -297h-276l-66 297v242zM569 1466h406v-242l-64 -297h-276l-66 297v242z"/>
<glyph glyph-name="numbersign" horiz-adv-x="1352" unicode="#" d="M537 604h219l52 253h-218zM253 604l52 253h-245v276h300l71 358h285l-73 -358h219l72 358h284l-70 -358h137v-276h-193l-51 -253h244v-276h-299l-71 -352h-285l70 352h-218l-72 -352h-283l73 352h-140v276h193z"/>
<glyph glyph-name="dollar" d="M753 237q85 19 124.5 62.5t39.5 97.5q0 47 -33.5 86.5t-130.5 73.5v-320zM607 1221q-64 -21 -89 -52t-25 -73q0 -44 25.5 -76.5t88.5 -54.5v256zM1250 1121l-372 -59q-28 71 -50.5 98.5t-74.5 55.5v-289q304 -81 406 -171q135 -121 135 -307q0 -109 -48.5 -200t-124 -152 t-160.5 -88.5t-208 -32.5v-189h-146v189q-147 13 -238.5 47.5t-158 95.5t-102.5 131.5t-54 170.5l404 47q18 -99 48.5 -143t100.5 -78v353q-202 56 -286.5 97t-146.5 131.5t-62 220.5q0 178 124.5 297.5t370.5 132.5v99h146v-99q224 -14 342.5 -106t154.5 -252z" unicode="$"/>
<glyph glyph-name="percent" horiz-adv-x="2048" unicode="%" d="M1437 311q0 -124 40 -180q25 -36 75 -36t76 36q40 56 40 180t-40 181q-26 36 -76 36t-75 -37q-40 -56 -40 -180zM1156 313q0 103 44 194.5t136 141.5t216 50q185 0 291 -105.5t106 -280.5t-106 -280.5t-291 -105.5q-124 0 -216 50t-136 141.5t-44 194.5zM380 1104 q0 -124 40 -180q26 -37 76 -37t75 37q40 56 40 180q0 123 -40 180q-25 36 -75 36t-76 -36q-40 -56 -40 -180zM99 1106q0 102 44.5 194t136 141.5t216.5 49.5q184 0 290 -105t106 -280q0 -176 -106 -281t-290 -105q-125 0 -216.5 49.5t-136 141.5t-44.5 195zM1344 1491h211 l-847 -1566h-209z"/>
<glyph glyph-name="ampersand" horiz-adv-x="1821" unicode="&amp;" d="M694 614q-84 -59 -111.5 -101t-27.5 -89q0 -73 63 -130t164 -57q109 0 245 85q-130 100 -333 292zM839 970q79 43 122 93.5t43 95.5q0 47 -36 79.5t-99 32.5q-62 0 -101 -36t-39 -85q0 -62 110 -180zM1307 713l318 -71q-25 -88 -48 -141t-65 -125l153 -105q28 -18 72 -43 l-219 -252q-60 32 -124.5 74t-115.5 72q-106 -70 -212 -102q-147 -44 -334 -44q-293 0 -436 122t-143 296q0 125 84 236.5t275 188.5q-80 97 -110 168.5t-30 145.5q0 156 119 257t361 101q247 0 363 -96t116 -230q0 -75 -35.5 -144t-85.5 -112t-179 -128q107 -107 223 -199 q31 62 53 131z"/>
<glyph glyph-name="quotesingle" horiz-adv-x="569" unicode="&apos;" d="M85 1466h406v-242l-64 -297h-276l-66 297v242z"/>
<glyph glyph-name="parenleft" horiz-adv-x="797" unicode="(" d="M463 1491h254q-131 -290 -189 -536q-49 -209 -49 -446q0 -457 238 -940h-254q-194 275 -272.5 497.5t-78.5 466.5q0 253 82.5 481t268.5 477z"/>
<glyph glyph-name="parenright" horiz-adv-x="797" unicode=")" d="M334 1491q186 -249 268 -477t83 -481q-1 -245 -79 -467t-272 -497h-254q238 483 238 940q0 237 -49 446q-58 246 -189 536h254z"/>
<glyph glyph-name="asterisk" horiz-adv-x="1139" unicode="*" d="M453 1491h221l-18 -151q-6 -55 -25 -125q38 19 50 26q42 23 64 33l139 66l69 -211l-154 -32q-42 -8 -125 -11q56 -44 89 -80l104 -113l-180 -135l-74 135q-16 29 -52 113q-39 -92 -52 -113l-75 -135l-185 135l112 113q47 47 92 80q-46 4 -121 18l-155 25l72 211l139 -63 q22 -10 109 -62q-19 84 -24 125z"/>
<glyph glyph-name="plus" horiz-adv-x="1352" unicode="+" d="M127 894h383v385h323v-385h385v-324h-385v-383h-323v383h-383v324z"/>
<glyph glyph-name="comma" horiz-adv-x="682" unicode="," d="M124 404h435v-335q0 -185 -77 -292t-263 -189l-95 178q116 54 159.5 107.5t48.5 126.5h-208v404z"/>
<glyph glyph-name="hyphen" horiz-adv-x="682" unicode="-" d="M45 692h592v-315h-592v315z"/>
<glyph glyph-name="hyphen" horiz-adv-x="682" unicode="­" d="M45 692h592v-315h-592v315z"/>
<glyph glyph-name="period" horiz-adv-x="682" unicode="." d="M124 408h435v-408h-435v408z"/>
<glyph glyph-name="slash" horiz-adv-x="569" unicode="/" d="M367 1491h208l-368 -1515h-206z"/>
<glyph glyph-name="zero" d="M488 738q0 -280 49.5 -382.5t143.5 -102.5q62 0 107.5 43.5t67 137.5t21.5 293q0 292 -49.5 392.5t-148.5 100.5q-101 0 -146 -102.5t-45 -379.5zM84 739q0 418 150.5 585t458.5 167q148 0 243 -36.5t155 -95t94.5 -123t55.5 -150.5q41 -164 41 -342q0 -399 -135 -584 t-465 -185q-185 0 -299 59t-187 173q-53 81 -82.5 221.5t-29.5 310.5z" unicode="0"/>
<glyph glyph-name="one" d="M1007 1491v-1491h-412v977q-100 -76 -193.5 -123t-234.5 -90v334q208 67 323 161t180 232h337z" unicode="1"/>
<glyph glyph-name="two" d="M1276 0h-1222q21 181 127.5 340.5t399.5 376.5q179 133 229 202t50 131q0 67 -49.5 114.5t-124.5 47.5q-78 0 -127.5 -49t-66.5 -173l-408 33q24 172 88 268.5t180.5 148t322.5 51.5q215 0 334.5 -49t188 -150.5t68.5 -227.5q0 -134 -78.5 -256t-285.5 -268 q-123 -85 -164.5 -119t-97.5 -89h636v-332z" unicode="2"/>
<glyph glyph-name="three" d="M479 1042l-385 69q48 184 184.5 282t386.5 98q287 0 415 -107t128 -269q0 -95 -52 -172t-157 -135q85 -21 130 -49q73 -45 113.5 -118.5t40.5 -175.5q0 -128 -67 -245.5t-193 -181t-331 -63.5q-200 0 -315.5 47t-190 137.5t-114.5 227.5l407 54q24 -123 74.5 -170.5 t128.5 -47.5q82 0 136.5 60t54.5 160q0 102 -52.5 158t-142.5 56q-48 0 -132 -24l21 291q34 -5 53 -5q80 0 133.5 51t53.5 121q0 67 -40 107t-110 40q-72 0 -117 -43.5t-61 -152.5z" unicode="3"/>
<glyph glyph-name="four" d="M784 590v461l-392 -461h392zM784 274h-742v335l742 882h355v-901h184v-316h-184v-274h-355v274z" unicode="4"/>
<glyph glyph-name="five" d="M249 1466h967v-325h-655l-35 -220q68 32 134.5 48t131.5 16q220 0 357 -133t137 -335q0 -142 -70.5 -273t-200 -200t-331.5 -69q-145 0 -248.5 27.5t-176 82t-117.5 123.5t-75 172l412 45q15 -99 70 -150.5t131 -51.5q85 0 140.5 64.5t55.5 192.5q0 131 -56 192t-149 61 q-59 0 -114 -29q-41 -21 -90 -76l-347 50z" unicode="5"/>
<glyph glyph-name="six" d="M513 483q0 -119 60 -186.5t147 -67.5q80 0 134 61t54 182q0 124 -56 189t-139 65q-85 0 -142.5 -63t-57.5 -180zM1263 1136l-405 -50q-16 85 -53.5 120t-92.5 35q-99 0 -154 -100q-40 -72 -59 -308q73 74 150 109.5t178 35.5q196 0 331.5 -140t135.5 -355 q0 -145 -68.5 -265t-190 -181.5t-304.5 -61.5q-220 0 -353 75t-212.5 239.5t-79.5 435.5q0 397 167 581.5t463 184.5q175 0 276.5 -40.5t168.5 -118.5t102 -196z" unicode="6"/>
<glyph glyph-name="seven" d="M91 1466h1189v-275q-155 -140 -259 -303q-126 -198 -199 -441q-58 -189 -78 -447h-406q48 359 151 602t326 520h-724v344z" unicode="7"/>
<glyph glyph-name="eight" d="M490 445q0 -97 59 -158.5t135 -61.5q73 0 131 62.5t58 158.5q0 97 -58.5 159t-135.5 62q-76 0 -132.5 -60t-56.5 -162zM512 1076q0 -76 47.5 -122.5t126.5 -46.5q70 0 115 46t45 119q0 76 -47 123.5t-120 47.5q-74 0 -120.5 -46.5t-46.5 -120.5zM329 788q-96 51 -140 114 q-60 86 -60 198q0 184 173 301q135 90 357 90q294 0 434.5 -112t140.5 -282q0 -99 -56 -185q-42 -64 -132 -124q119 -57 177.5 -151t58.5 -208q0 -110 -50.5 -205.5t-124 -147.5t-183 -76.5t-233.5 -24.5q-233 0 -356 55t-187 162t-64 239q0 129 60 218.5t185 138.5z" unicode="8"/>
<glyph glyph-name="nine" d="M852 983q0 119 -60 186.5t-146 67.5q-81 0 -134.5 -61t-53.5 -183q0 -123 55.5 -188t138.5 -65q86 0 143 63t57 180zM102 329l405 51q16 -85 54 -120t93 -35q98 0 153 99q40 73 60 309q-73 -75 -150 -110t-178 -35q-197 0 -332.5 140t-135.5 354q0 146 69 266t190 181.5 t304 61.5q220 0 353 -75.5t212.5 -240t79.5 -434.5q0 -397 -167 -581.5t-463 -184.5q-175 0 -276 40.5t-168 118.5t-103 195z" unicode="9"/>
<glyph glyph-name="colon" horiz-adv-x="682" unicode=":" d="M124 408h435v-408h-435v408zM124 1062h435v-408h-435v408z"/>
<glyph glyph-name="less" horiz-adv-x="1352" unicode="&lt;" d="M1244 112l-1137 473v296l1137 472v-355l-691 -266l691 -267v-353z"/>
<glyph glyph-name="equal" horiz-adv-x="1352" unicode="=" d="M126 649h1092v-324h-1092v324zM126 1141h1092v-325h-1092v325z"/>
<glyph glyph-name="greater" horiz-adv-x="1352" unicode="&gt;" d="M108 112v353l691 267l-691 266v355l1137 -472v-296z"/>
<glyph glyph-name="question" horiz-adv-x="1251" unicode="?" d="M392 359h407v-359h-407v359zM785 460h-380v38q0 97 22 157.5t65.5 110.5t195.5 176q81 66 81 121t-32.5 85.5t-98.5 30.5q-71 0 -117.5 -47t-59.5 -164l-388 48q20 214 155.5 344.5t415.5 130.5q218 0 352 -91q182 -123 182 -328q0 -85 -47 -164t-192 -193 q-101 -80 -127.5 -128.5t-26.5 -126.5z"/>
<glyph glyph-name="at" horiz-adv-x="1516" unicode="@" d="M490 493q0 -119 51 -185q38 -49 97 -49q64 0 116 54.5t91 217.5t39 293q0 98 -42 148t-100 50q-66 0 -116 -50q-67 -67 -101.5 -212.5t-34.5 -266.5zM1156 1148l-125 -791q-4 -24 -4 -35q0 -18 10 -28t30 -10q46 0 104 41q86 60 141.5 173.5t55.5 274.5q0 264 -151.5 417 t-406.5 153q-188 0 -342.5 -90t-238 -261t-83.5 -378q0 -322 181.5 -510.5t468.5 -188.5q140 0 269.5 47t248.5 140h205q-82 -97 -156 -152q-109 -81 -253 -132t-310 -51q-231 0 -415 107t-287.5 305t-103.5 436q0 250 107.5 454.5t285.5 313.5t422 109q315 0 512.5 -200 t197.5 -517q0 -188 -77 -344t-226 -247q-115 -70 -216 -70q-60 0 -98 28t-56 89q-67 -65 -122 -91.5t-119 -26.5q-133 0 -229 111t-96 318q0 245 123 443t305 198q71 0 125.5 -33t109.5 -115l18 113h195z"/>
<glyph glyph-name="A" horiz-adv-x="1593" unicode="A" d="M957 559l-162 527l-161 -527h323zM1052 242h-516l-71 -242h-463l551 1466h494l551 -1466h-474z"/>
<glyph glyph-name="B" horiz-adv-x="1593" unicode="B" d="M608 315h231q117 0 165 41.5t48 111.5q0 65 -47.5 104.5t-166.5 39.5h-230v-297zM608 891h197q106 0 147.5 36.5t41.5 105.5q0 64 -41.5 100t-144.5 36h-200v-278zM151 1466h848q212 0 325.5 -105t113.5 -260q0 -130 -81 -223q-54 -62 -158 -98q158 -38 232.5 -130.5 t74.5 -232.5q0 -114 -53 -205t-145 -144q-57 -33 -172 -48q-153 -20 -203 -20h-782v1466z"/>
<glyph glyph-name="C" horiz-adv-x="1593" unicode="C" d="M1126 599l397 -120q-40 -167 -126 -279t-213.5 -169t-324.5 -57q-239 0 -390.5 69.5t-261.5 244.5t-110 448q0 364 193.5 559.5t547.5 195.5q277 0 435.5 -112t235.5 -344l-400 -89q-21 67 -44 98q-38 52 -93 80t-123 28q-154 0 -236 -124q-62 -92 -62 -289 q0 -244 74 -334.5t208 -90.5q130 0 196.5 73t96.5 212z"/>
<glyph glyph-name="D" horiz-adv-x="1593" unicode="D" d="M609 1134v-801h111q142 0 202 31.5t94 110t34 254.5q0 233 -76 319t-252 86h-113zM156 1466h673q199 0 321.5 -54t202.5 -155t116 -235t36 -284q0 -235 -53.5 -364.5t-148.5 -217t-204 -116.5q-149 -40 -270 -40h-673v1466z"/>
<glyph glyph-name="E" horiz-adv-x="1479" unicode="E" d="M149 1466h1214v-313h-760v-233h705v-299h-705v-289h782v-332h-1236v1466z"/>
<glyph glyph-name="F" d="M152 1466h1120v-315h-665v-256h568v-296h-568v-599h-455v1466z" unicode="F"/>
<glyph glyph-name="G" horiz-adv-x="1706" unicode="G" d="M887 531v305h700v-625q-201 -137 -355.5 -186.5t-366.5 -49.5q-261 0 -425.5 89t-255 265t-90.5 404q0 240 99 417.5t290 269.5q149 71 401 71q243 0 363.5 -44t200 -136.5t119.5 -234.5l-437 -78q-27 83 -91.5 127t-164.5 44q-149 0 -237.5 -103.5t-88.5 -327.5 q0 -238 89.5 -340t249.5 -102q76 0 145 22t158 75v138h-303z"/>
<glyph glyph-name="H" horiz-adv-x="1706" unicode="H" d="M152 1466h453v-513h495v513h455v-1466h-455v593h-495v-593h-453v1466z"/>
<glyph glyph-name="I" horiz-adv-x="797" unicode="I" d="M168 1466h454v-1466h-454v1466z"/>
<glyph glyph-name="J" d="M760 1466h454v-797q0 -251 -44.5 -382t-179 -222t-344.5 -91q-222 0 -344 60t-188.5 175.5t-78.5 285.5l433 59q1 -97 17 -144t54 -76q26 -19 74 -19q76 0 111.5 56.5t35.5 190.5v904z" unicode="J"/>
<glyph glyph-name="K" horiz-adv-x="1706" unicode="K" d="M152 1466h453v-554l475 554h602l-534 -553l558 -913h-558l-309 603l-234 -245v-358h-453v1466z"/>
<glyph glyph-name="L" d="M150 1466h453v-1105h707v-361h-1160v1466z" unicode="L"/>
<glyph glyph-name="M" horiz-adv-x="1933" unicode="M" d="M145 1466h596l230 -892l229 892h594v-1466h-370v1118l-287 -1118h-335l-286 1118v-1118h-371v1466z"/>
<glyph glyph-name="N" horiz-adv-x="1706" unicode="N" d="M153 1466h423l552 -811v811h427v-1466h-427l-549 805v-805h-426v1466z"/>
<glyph glyph-name="O" horiz-adv-x="1706" unicode="O" d="M546 730q0 -222 82.5 -319t224.5 -97q146 0 226 95t80 341q0 207 -83.5 302.5t-226.5 95.5q-137 0 -220 -97t-83 -321zM93 732q0 359 200 559t557 200q366 0 564 -196.5t198 -550.5q0 -257 -86.5 -421.5t-250 -256t-407.5 -91.5q-248 0 -410.5 79t-263.5 250t-101 428z "/>
<glyph glyph-name="P" horiz-adv-x="1479" unicode="P" d="M603 841h111q131 0 184 45.5t53 116.5q0 69 -46 117t-173 48h-129v-327zM148 1466h753q246 0 368.5 -117t122.5 -333q0 -222 -133.5 -347t-407.5 -125h-248v-544h-455v1466z"/>
<glyph glyph-name="Q" horiz-adv-x="1706" unicode="Q" d="M1105 446q54 97 54 290q0 222 -82.5 317t-227.5 95q-135 0 -219 -97t-84 -303q0 -240 82 -337t225 -97q46 0 87 9q-57 55 -180 104l71 163q60 -11 93.5 -27t130.5 -84q23 -16 50 -33zM1452 214q85 -59 111 -74q39 -22 105 -51l-126 -254q-95 46 -188 109.5t-130 95.5 q-150 -65 -376 -65q-334 0 -527 174q-228 206 -228 579q0 362 199.5 562.5t557.5 200.5q365 0 563.5 -196t198.5 -561q0 -325 -160 -520z"/>
<glyph glyph-name="R" horiz-adv-x="1593" unicode="R" d="M611 872h191q31 0 120 20q45 9 73.5 46t28.5 85q0 71 -45 109t-169 38h-199v-298zM156 0v1466h755q210 0 321 -36t179 -133.5t68 -237.5q0 -122 -52 -210.5t-143 -143.5q-58 -35 -159 -58q81 -27 118 -54q25 -18 72.5 -77t63.5 -91l219 -425h-512l-242 448 q-46 87 -82 113q-49 34 -111 34h-40v-595h-455z"/>
<glyph glyph-name="S" horiz-adv-x="1479" unicode="S" d="M71 485l431 27q14 -105 57 -160q70 -89 200 -89q97 0 149.5 45.5t52.5 105.5q0 57 -50 102t-232 85q-298 67 -425 178q-128 111 -128 283q0 113 65.5 213.5t197 158t360.5 57.5q281 0 428.5 -104.5t175.5 -332.5l-427 -25q-17 99 -71.5 144t-150.5 45q-79 0 -119 -33.5 t-40 -81.5q0 -35 33 -63q32 -29 152 -54q297 -64 425.5 -129.5t187 -162.5t58.5 -217q0 -141 -78 -260t-218 -180.5t-353 -61.5q-374 0 -518 144t-163 366z"/>
<glyph glyph-name="T" horiz-adv-x="1479" unicode="T" d="M47 1466h1377v-362h-462v-1104h-453v1104h-462v362z"/>
<glyph glyph-name="U" horiz-adv-x="1706" unicode="U" d="M1104 1466h452v-874q0 -130 -40.5 -245.5t-127 -202t-181.5 -121.5q-132 -49 -317 -49q-107 0 -233.5 15t-211.5 59.5t-155.5 126.5t-96.5 169q-42 140 -42 248v874h452v-895q0 -120 66.5 -187.5t184.5 -67.5q117 0 183.5 66.5t66.5 188.5v895z"/>
<glyph glyph-name="V" horiz-adv-x="1593" unicode="V" d="M5 1466h474l330 -1055l325 1055h460l-544 -1466h-491z"/>
<glyph glyph-name="W" horiz-adv-x="2048" unicode="W" d="M-1 1466h430l155 -819l226 819h429l227 -819l155 819h428l-323 -1466h-444l-257 923l-256 -923h-444z"/>
<glyph glyph-name="X" horiz-adv-x="1593" unicode="X" d="M49 1466h499l260 -451l252 451h494l-456 -710l499 -756h-509l-289 471l-290 -471h-506l506 764z"/>
<glyph glyph-name="Y" horiz-adv-x="1593" unicode="Y" d="M2 1466h503l296 -495l296 495h500l-570 -852v-614h-454v614z"/>
<glyph glyph-name="Z" horiz-adv-x="1479" unicode="Z" d="M113 1466h1282v-293l-822 -858h852v-315h-1391v304l813 849h-734v313z"/>
<glyph glyph-name="bracketleft" horiz-adv-x="797" unicode="[" d="M135 1466h615v-316h-243v-1241h243v-316h-615v1873z"/>
<glyph glyph-name="backslash" horiz-adv-x="569" unicode="\" d="M202 1491l366 -1515h-206l-368 1515h208z"/>
<glyph glyph-name="bracketright" horiz-adv-x="797" unicode="]" d="M662 1466v-1873h-615v316h243v1241h-243v316h615z"/>
<glyph glyph-name="asciicircum" horiz-adv-x="1352" unicode="^" d="M533 1491h279l408 -813h-353l-193 491l-195 -491h-354z"/>
<glyph glyph-name="underscore" horiz-adv-x="1024" unicode="_" d="M-12 -154h1048v-102h-1048v102z"/>
<glyph glyph-name="grave" horiz-adv-x="682" unicode="`" d="M1 1491h347l164 -298h-192z"/>
<glyph glyph-name="a" d="M847 504q-84 -30 -175 -53q-124 -33 -157 -65q-34 -33 -34 -75q0 -48 33.5 -78.5t98.5 -30.5q68 0 126.5 33t83 80.5t24.5 123.5v65zM494 718l-389 41q22 102 63.5 160.5t119.5 101.5q56 31 154 48t212 17q183 0 294 -20.5t185 -85.5q52 -45 82 -127.5t30 -157.5v-469 q0 -75 9.5 -117.5t41.5 -108.5h-382q-23 41 -30 62.5t-14 67.5q-80 -77 -159 -110q-108 -44 -251 -44q-190 0 -288.5 88t-98.5 217q0 121 71 199t262 116q229 46 297 64.5t144 48.5q0 75 -31 105t-109 30q-100 0 -150 -32q-39 -25 -63 -94z" unicode="a"/>
<glyph glyph-name="b" d="M533 534q0 -137 51.5 -198.5t130.5 -61.5q73 0 122.5 60.5t49.5 203.5q0 126 -48.5 185t-117.5 59q-83 0 -135.5 -61.5t-52.5 -186.5zM125 1466h411v-508q61 64 138.5 96t171.5 32q194 0 321 -139.5t127 -400.5q0 -174 -58 -306.5t-160.5 -198t-227.5 -65.5 q-107 0 -196 46q-67 36 -146 135v-157h-381v1466z" unicode="b"/>
<glyph glyph-name="c" d="M915 415l387 -44q-32 -121 -105 -209.5t-186.5 -137.5t-288.5 -49q-169 0 -281.5 31.5t-193.5 102t-127 165.5t-46 252q0 164 56 273q41 80 112 143.5t146 94.5q119 49 305 49q260 0 396.5 -93t191.5 -272l-383 -51q-18 68 -65.5 102.5t-127.5 34.5q-101 0 -163.5 -72.5 t-62.5 -219.5q0 -131 62 -199t158 -68q80 0 134.5 41t81.5 126z" unicode="c"/>
<glyph glyph-name="d" d="M833 534q0 125 -53 186.5t-134 61.5q-71 0 -119 -59t-48 -198q0 -130 49.5 -190.5t122.5 -60.5q78 0 130 61t52 199zM1241 1466v-1466h-381v157q-80 -100 -146 -135q-88 -46 -196 -46q-217 0 -331.5 165t-114.5 401q0 264 126.5 404t321.5 140q95 0 172.5 -32t137.5 -96 v508h411z" unicode="d"/>
<glyph glyph-name="e" d="M888 625q-12 118 -63.5 169t-135.5 51q-97 0 -155 -77q-37 -48 -47 -143h401zM1302 430h-816q11 -98 53 -146q59 -69 154 -69q60 0 114 30q33 19 71 67l401 -37q-92 -160 -222 -229.5t-373 -69.5q-211 0 -332 59.5t-200.5 189t-79.5 304.5q0 249 159.5 403t440.5 154 q228 0 360 -69t201 -200t69 -341v-46z" unicode="e"/>
<glyph glyph-name="f" horiz-adv-x="797" unicode="f" d="M576 1062h194v-298h-194v-764h-408v764h-152v298h152v48q0 65 14 143t52.5 127.5t108 80t203.5 30.5q107 0 311 -25l-45 -246q-73 12 -118 12q-55 0 -79 -18.5t-34 -58.5q-5 -22 -5 -93z"/>
<glyph glyph-name="g" d="M479 547q0 -115 49 -170.5t129 -55.5q76 0 127.5 57.5t51.5 173.5t-54 177.5t-132 61.5t-124.5 -56.5t-46.5 -187.5zM862 1062h381v-1003l1 -47q0 -100 -42.5 -190.5t-113 -146.5t-179 -81t-248.5 -25q-320 0 -439.5 96t-119.5 257q0 20 2 54l395 -45q15 -55 46 -76 q45 -31 113 -31q88 0 131.5 47t43.5 164v161q-60 -71 -120 -103q-94 -50 -203 -50q-213 0 -344 186q-93 132 -93 349q0 248 120 378t314 130q124 0 204.5 -42t150.5 -139v157z" unicode="g"/>
<glyph glyph-name="h" d="M123 1466h407v-540q83 86 165 123t194 37q166 0 261.5 -101t95.5 -310v-675h-409v584q0 100 -37 141.5t-104 41.5q-74 0 -120 -56t-46 -201v-510h-407v1466z" unicode="h"/>
<glyph glyph-name="i" horiz-adv-x="682" unicode="i" d="M138 1062h407v-1062h-407v1062zM138 1466h407v-277h-407v277z"/>
<glyph glyph-name="j" horiz-adv-x="682" unicode="j" d="M139 1062h408v-1030q0 -197 -28.5 -279t-105.5 -133t-220 -51q-118 0 -293 35l61 296q49 -10 72 -10q52 0 79 35.5t27 141.5v995zM139 1466h408v-280h-408v280z"/>
<glyph glyph-name="k" d="M123 1466h416v-756l304 352h501l-381 -372l403 -690h-459l-215 426l-153 -150v-276h-416v1466z" unicode="k"/>
<glyph glyph-name="l" horiz-adv-x="682" unicode="l" d="M137 1466h408v-1466h-408v1466z"/>
<glyph glyph-name="m" horiz-adv-x="2048" unicode="m" d="M126 1062h380v-155q82 97 165.5 138t201.5 41q127 0 201 -45t121 -134q96 104 175 141.5t195 37.5q171 0 267 -101.5t96 -317.5v-667h-408v605q0 72 -28 107q-41 55 -102 55q-72 0 -116 -52t-44 -167v-548h-408v585q0 70 -8 95q-13 40 -45 64.5t-75 24.5q-70 0 -115 -53 t-45 -174v-542h-408v1062z"/>
<glyph glyph-name="n" d="M123 1062h379v-173q85 106 172 151.5t212 45.5q169 0 264.5 -100.5t95.5 -310.5v-675h-409v584q0 100 -37 141.5t-104 41.5q-74 0 -120 -56t-46 -201v-510h-407v1062z" unicode="n"/>
<glyph glyph-name="o" d="M481 529q0 -142 57.5 -210t144.5 -68q88 0 144.5 67t56.5 215q0 138 -57 205.5t-141 67.5q-89 0 -147 -68.5t-58 -208.5zM73 528q0 243 164 400.5t443 157.5q319 0 482 -185q131 -149 131 -367q0 -245 -162.5 -401.5t-449.5 -156.5q-256 0 -414 130q-194 161 -194 422z " unicode="o"/>
<glyph glyph-name="p" d="M533 528q0 -126 53 -187t134 -61q71 0 119 58.5t48 198.5q0 129 -50 189.5t-122 60.5q-78 0 -130 -61t-52 -198zM125 -404v1466h381v-157q79 99 145 134q89 47 197 47q213 0 329.5 -163t116.5 -403q0 -265 -127 -404.5t-321 -139.5q-94 0 -171.5 32t-138.5 95v-507h-411z " unicode="p"/>
<glyph glyph-name="q" d="M833 528q0 137 -51.5 198t-130.5 61q-73 0 -122.5 -60.5t-49.5 -202.5q0 -127 48.5 -185.5t118.5 -58.5q82 0 134.5 61t52.5 187zM1241 -404h-411v507q-60 -63 -137.5 -95t-172.5 -32q-194 0 -321 139.5t-127 399.5q0 174 58 307t161 198.5t227 65.5q107 0 197 -47 q66 -35 145 -134v157h381v-1466z" unicode="q"/>
<glyph glyph-name="r" horiz-adv-x="909" unicode="r" d="M127 1062h381v-174q55 113 113.5 155.5t144.5 42.5q90 0 197 -56l-126 -290q-72 30 -114 30q-80 0 -124 -66q-63 -93 -63 -348v-356h-409v1062z"/>
<glyph glyph-name="s" horiz-adv-x="1251" unicode="s" d="M51 294l404 38q25 -72 70 -103t120 -31q82 0 127 35q35 26 35 65q0 44 -46 68q-33 17 -175 42q-212 37 -294.5 68.5t-139 106.5t-56.5 171q0 105 61 181t168 113.5t287 37.5q190 0 280.5 -29t151 -90t100.5 -165l-386 -38q-15 51 -50 75q-48 32 -116 32 q-69 0 -100.5 -24.5t-31.5 -59.5q0 -39 40 -59t174 -36q203 -23 302 -64t151.5 -117t52.5 -167q0 -92 -55.5 -179t-175 -138.5t-325.5 -51.5q-291 0 -414.5 83t-158.5 236z"/>
<glyph glyph-name="t" horiz-adv-x="909" unicode="t" d="M614 1466v-404h224v-297h-224v-377q0 -68 13 -90q20 -34 70 -34q45 0 126 26l30 -281q-151 -33 -282 -33q-152 0 -224 39t-106.5 118.5t-34.5 257.5v374h-150v297h150v195z"/>
<glyph glyph-name="u" d="M1242 0h-380v172q-85 -106 -171.5 -151t-212.5 -45q-168 0 -263.5 100.5t-95.5 309.5v676h409v-584q0 -100 37 -142t104 -42q73 0 119.5 56t46.5 201v511h407v-1062z" unicode="u"/>
<glyph glyph-name="v" horiz-adv-x="1251" unicode="v" d="M2 1062h424l206 -673l213 673h411l-451 -1062h-361z"/>
<glyph glyph-name="w" horiz-adv-x="1933" unicode="w" d="M3 1062h394l171 -669l216 669h367l224 -669l171 669h391l-391 -1062h-362l-215 639l-208 -639h-364z"/>
<glyph glyph-name="x" d="M31 1062h483l169 -296l196 296h449l-362 -506l388 -556h-475l-196 342l-231 -342h-441l386 556z" unicode="x"/>
<glyph glyph-name="y" horiz-adv-x="1251" unicode="y" d="M5 1062h430l219 -707l203 707h401l-421 -1135q-72 -194 -147 -262q-106 -96 -323 -96q-88 0 -272 24l-32 284q88 -28 196 -28q72 0 116.5 33t75.5 118z"/>
<glyph glyph-name="z" horiz-adv-x="1139" unicode="z" d="M77 1062h985v-238l-536 -546h569v-278h-1058v264l508 520h-468v278z"/>
<glyph glyph-name="braceleft" horiz-adv-x="797" unicode="{" d="M774 1491v-328h-45q-63 0 -94.5 -26.5t-44.5 -81.5q-7 -30 -8 -164.5t-28 -211.5q-20 -59 -57 -95q-28 -27 -92 -55q67 -31 99.5 -64.5t55.5 -102t23 -218.5q0 -135 14 -176t46.5 -58t130.5 -17v-324h-126q-195 0 -277 42.5t-117 124t-35 244.5q0 36 2 72q1 22 1 45 q0 116 -21 165t-60.5 71t-114.5 24v343q77 0 115.5 24t58.5 73.5t20 167.5v34q-1 23 -1 46q0 177 29.5 256t81.5 121q39 32 106 48q89 21 203 21h135z"/>
<glyph glyph-name="bar" horiz-adv-x="569" unicode="|" d="M160 1466h255v-1870h-255v1870z"/>
<glyph glyph-name="braceright" horiz-adv-x="797" unicode="}" d="M23 1491h135q114 0 203 -21q67 -16 106 -48q51 -42 81 -121t30 -256q0 -23 -1 -46v-34q0 -117 20 -167q21 -50 59 -74t115 -24v-343q-75 -2 -115 -24t-60 -71q-21 -49 -21 -165q0 -23 1 -45q2 -36 2 -72q0 -162 -35 -244t-117 -124t-277 -43h-126v324q99 0 131 17t46 58 t14 176q0 150 23 218t55 102t100 65q-64 28 -92 55q-37 36 -57 95q-27 77 -28 211t-8 165q-13 55 -45 81t-94 27h-45v328z"/>
<glyph glyph-name="asciitilde" horiz-adv-x="1352" unicode="~" d="M1246 972v-326q-115 -92 -186 -123t-147 -31q-58 0 -116.5 17t-183 80t-196.5 63q-154 0 -318 -160v329q93 83 174 118t177 35q49 0 103 -15.5t158.5 -66.5t148.5 -64t83 -13q134 0 303 157z"/>
<glyph glyph-name="nbspace" horiz-adv-x="683" unicode=" "/>
<glyph glyph-name="exclamdown" horiz-adv-x="682" unicode="¡" d="M139 703v359h406v-359h-406zM124 -404v334l82 671h269l84 -671v-334h-435z"/>
<glyph glyph-name="cent" d="M529 299l182 529q-13 1 -20 1q-88 0 -159 -71.5t-71 -251.5q0 -76 14.5 -118.5t53.5 -88.5zM932 412l370 -41q-21 -99 -60 -158q-71 -108 -197.5 -176.5t-300.5 -68.5q-45 0 -179 8l-129 -366l-131 46l122 352q-162 51 -257.5 184.5t-95.5 336.5q0 254 160.5 409.5 t419.5 155.5q39 0 149 -8l129 360l129 -47l-120 -337q101 -32 166.5 -81.5t109.5 -115.5q32 -49 65 -143l-364 -49q-14 47 -27 67t-44 48l-194 -555q36 -5 57 -5q77 0 137 47.5t85 136.5z" unicode="¢"/>
<glyph glyph-name="sterling" d="M676 845h303v-239h-268q-5 -85 -31 -153q-21 -52 -70 -108q56 13 96 13q51 0 133 -20q112 -26 179 -26q55 0 95.5 9.5t106.5 39.5l136 -298q-99 -50 -174 -69t-161 -19q-94 0 -215 33q-159 44 -197 51t-82 7q-129 0 -285 -91l-129 284q210 151 210 302q0 8 -2 45h-208 v239h149q-38 132 -43 153q-6 32 -6 79q0 125 66.5 224.5t175 144.5t292.5 45q172 0 272.5 -38.5t170 -128t95.5 -216.5l-382 -60q-29 107 -66.5 142t-85.5 35q-58 0 -94 -38t-36 -108q0 -37 7 -71.5t48 -162.5z" unicode="£"/>
<glyph glyph-name="currency" horiz-adv-x="1352" unicode="¤" d="M863 574q0 80 -56 136t-136 56q-79 0 -135 -56t-56 -136q0 -79 56 -135t135 -56q80 0 136 56t56 135zM305 1147l144 -142q57 29 112.5 43t109.5 14t110 -14t113 -43l140 142l211 -209l-141 -143q26 -54 39 -108.5t13 -109.5q0 -54 -13 -110t-39 -114l141 -140l-211 -213 l-140 143q-61 -27 -117.5 -40.5t-108.5 -13.5t-107 13.5t-112 40.5l-137 -143l-214 213l141 140q-27 52 -40.5 106t-13.5 110q0 57 13.5 113.5t40.5 112.5l-141 143z"/>
<glyph glyph-name="yen" d="M-2 1466h457l229 -498l226 498h458l-349 -632h297v-221h-421v-121h421v-224h-421v-268h-416v268h-428v224h428v121h-428v221h306z" unicode="¥"/>
<glyph glyph-name="brokenbar" horiz-adv-x="569" unicode="¦" d="M160 373h255v-777h-255v777zM160 1466h255v-776h-255v776z"/>
<glyph glyph-name="section" d="M446 764q-52 -69 -52 -111q0 -26 17 -45q28 -32 138 -82l385 -173q45 68 45 109q0 33 -27 59q-39 38 -231 117.5t-275 125.5zM1211 1159l-382 -44q-19 57 -52.5 81t-89.5 24q-67 0 -98 -26t-31 -66q0 -34 28 -60q50 -46 234 -113q263 -96 366 -188q102 -93 102 -243 q0 -88 -39 -160.5t-126 -147.5q53 -58 78.5 -117t25.5 -135q0 -104 -53.5 -195t-168.5 -145.5t-309 -54.5q-124 0 -220.5 21t-159 58t-103 85.5t-60.5 93t-36 120.5l376 39q36 -73 82 -107t113 -34q69 0 103.5 32t34.5 79q0 40 -41 81q-57 56 -305.5 154.5t-331.5 195.5 t-83 206q0 86 44.5 158.5t152.5 148.5q-51 56 -74 110t-23 121q0 86 40.5 157.5t105.5 114.5t132 62q91 26 234 26q191 0 285.5 -34.5t154.5 -106.5t94 -191z" unicode="§"/>
<glyph glyph-name="dieresis" horiz-adv-x="682" unicode="¨" d="M422 1446h263v-250h-263v250zM-2 1446h260v-250h-260v250z"/>
<glyph glyph-name="copyright" horiz-adv-x="1638" unicode="©" d="M999 634l206 -49q-38 -121 -105 -186q-105 -101 -274 -101q-184 0 -300 118.5t-116 313.5q0 185 119 305.5t298 120.5q145 0 244 -77t125 -199l-197 -30q-18 81 -65.5 120.5t-115.5 39.5q-78 0 -131 -66.5t-53 -208.5q0 -143 36 -204q53 -88 150 -88q61 0 109.5 45 t69.5 146zM1437 728q0 255 -180.5 435.5t-435.5 180.5t-435.5 -180.5t-180.5 -435.5t180.5 -435.5t435.5 -180.5t435.5 180.5t180.5 435.5zM1585 728q0 -205 -102.5 -382t-279.5 -279t-382 -102q-204 0 -381 102t-279.5 279t-102.5 382q0 204 102.5 381.5t279.5 279.5 t381 102q205 0 382 -102t279.5 -279.5t102.5 -381.5z"/>
<glyph glyph-name="ordfeminine" horiz-adv-x="819" unicode="ª" d="M500 1096q-57 -20 -122 -32.5t-88 -34.5q-24 -22 -24 -52q0 -36 26 -60t71 -24q63 0 100 40t37 124v39zM761 761h-218q-15 31 -24 67q-46 -43 -90 -60q-62 -24 -144 -24q-125 0 -188.5 59t-63.5 156q0 88 53 141q52 53 224 84q104 18 190 49q0 56 -22 77.5t-79 21.5 q-53 0 -77.5 -17t-37.5 -61l-221 43q19 71 54 111.5t91 61.5t167 21q212 0 282 -56q69 -57 69 -181v-337q0 -62 6.5 -90.5t28.5 -65.5z"/>
<glyph glyph-name="guillemotleft" d="M414 996h312l-277 -463l277 -462h-312l-319 462zM932 996h313l-277 -463l277 -462h-313l-318 462z" unicode="«"/>
<glyph glyph-name="logicalnot" horiz-adv-x="1352" unicode="¬" d="M126 1133h1092v-817h-326v492h-766v325z"/>
<glyph glyph-name="registered" horiz-adv-x="1638" unicode="®" d="M678 790h88q88 0 124 28.5t36 73.5t-34.5 73.5t-117.5 28.5h-96v-204zM475 1136h365q155 0 224.5 -62.5t69.5 -167.5q0 -82 -53 -142t-167 -87q47 -18 69 -38q31 -28 65 -83q2 -4 132 -236h-240q-117 233 -157 278.5t-80 45.5q-9 0 -25 -3v-321h-203v816zM1437 728 q0 255 -180.5 435.5t-435.5 180.5t-435.5 -180.5t-180.5 -435.5t180.5 -435.5t435.5 -180.5t435.5 180.5t180.5 435.5zM1585 728q0 -205 -102.5 -382t-279.5 -279t-382 -102q-204 0 -381 102t-279.5 279t-102.5 382q0 204 102.5 381.5t279.5 279.5t381 102q205 0 382 -102 t279.5 -279.5t102.5 -381.5z"/>
<glyph glyph-name="overscore" horiz-adv-x="1024" unicode="¯" d="M-12 1701h1048v-102h-1048v102z"/>
<glyph glyph-name="degree" horiz-adv-x="819" unicode="°" d="M506 1207q0 42 -29.5 72t-71.5 30t-72 -30t-30 -72t30 -71.5t72 -29.5t71.5 29.5t29.5 71.5zM692 1206q0 -118 -84 -202t-203 -84q-118 0 -202 84t-84 202q0 119 84 202.5t202 83.5q119 0 203 -83.5t84 -202.5z"/>
<glyph glyph-name="plusminus" horiz-adv-x="1352" unicode="±" d="M127 307h1091v-307h-1091v307zM127 1072h383v373h323v-373h385v-315h-385v-356h-323v356h-383v315z"/>
<glyph glyph-name="twosuperior" horiz-adv-x="819" unicode="²" d="M791 741h-769q25 91 80.5 156t247.5 193q111 74 141 110q29 36 29 65q0 30 -22.5 49t-69.5 19q-49 0 -82 -26.5t-48 -86.5l-246 21q18 80 48 120q43 59 127 94.5t212 35.5q181 0 265 -66t84 -158q0 -69 -42 -127q-43 -59 -142.5 -117t-161.5 -99h349v-183z"/>
<glyph glyph-name="threesuperior" horiz-adv-x="819" unicode="³" d="M301 1258l-258 40q49 94 121 137q96 56 256 56q180 0 272 -67q65 -48 65 -124q0 -53 -36 -98q-25 -31 -90 -62q80 -26 118 -77t38 -118q0 -94 -73 -149q-99 -75 -303 -75q-191 0 -293 78q-59 45 -87 134l254 29q16 -48 45 -69t77 -21q56 0 87.5 27.5t31.5 65.5 q0 51 -56 79q-32 16 -149 18l28 141q86 0 116 22t30 55q0 26 -20.5 43.5t-60.5 17.5q-41 0 -74 -23q-24 -17 -39 -60z"/>
<glyph glyph-name="acute" horiz-adv-x="682" unicode="´" d="M331 1491h350l-323 -299h-195z"/>
<glyph glyph-name="mu1" d="M120 1062h408v-534q0 -114 30 -156q44 -65 127 -65q77 0 115 58.5t38 173.5v523h406v-1062h-382v84q-33 -56 -64 -76q-49 -32 -101 -32q-48 0 -101 29q-35 19 -68 72v-479h-408v1464z" unicode="µ"/>
<glyph glyph-name="paragraph" horiz-adv-x="1741" unicode="¶" d="M1617 1466v-317h-131v-1556h-297v1556h-167v-1556h-297v1022h-69q-202 0 -304 49.5t-159.5 153t-57.5 232.5q0 201 128 308.5t382 107.5h972z"/>
<glyph glyph-name="middot" horiz-adv-x="683" unicode="·" d="M124 937h435v-408h-435v408z"/>
<glyph glyph-name="cedilla" horiz-adv-x="682" unicode="¸" d="M116 -165l30 118q94 23 176 23q171 0 236 -58t65 -137q0 -48 -29.5 -99t-105.5 -82t-202 -31q-114 0 -268 26v123q104 -20 221 -20q86 0 116.5 23t30.5 60q0 29 -25 50t-78 21q-71 0 -167 -17z"/>
<glyph glyph-name="onesuperior" horiz-adv-x="819" unicode="¹" d="M627 1491v-750h-260v448q-56 -33 -101.5 -49.5t-124.5 -32.5v207q184 45 288 177h198z"/>
<glyph glyph-name="ordmasculine" horiz-adv-x="819" unicode="º" d="M271 1117q0 -108 43 -160q33 -40 97 -40q57 0 94 46t37 154q0 110 -37.5 156.5t-97.5 46.5q-61 0 -98.5 -46.5t-37.5 -156.5zM23 1117q0 95 43 184.5t133 139.5t214 50q172 0 273.5 -103t101.5 -274q0 -165 -103 -268t-271 -103q-133 0 -223 54.5t-129 144.5t-39 175z "/>
<glyph glyph-name="guillemotright" d="M952 996l319 -463l-319 -462h-312l277 462l-277 463h312zM434 996l318 -463l-318 -462h-313l277 462l-277 463h313z" unicode="»"/>
<glyph glyph-name="onequarter" horiz-adv-x="2048" unicode="¼" d="M643 1491v-750h-260v448q-56 -33 -101.5 -49.5t-124.5 -32.5v207q184 45 288 177h198zM1400 1491h215l-922 -1544h-213zM1648 237v219l-204 -219h204zM1648 71h-408v189l418 461h214v-484h99v-166h-99v-121h-224v121z"/>
<glyph glyph-name="onehalf" horiz-adv-x="2048" unicode="½" d="M643 1491v-750h-260v448q-56 -33 -101.5 -49.5t-124.5 -32.5v207q184 45 288 177h198zM1369 1491h215l-922 -1544h-213zM1990 -29h-769q25 91 80.5 156t247.5 193q111 74 141 110q29 36 29 65q0 30 -22.5 49t-69.5 19q-49 0 -82 -26.5t-48 -86.5l-246 21q18 80 48 120 q43 59 127 94.5t212 35.5q181 0 265 -66t84 -158q0 -69 -42 -127q-43 -59 -142.5 -117t-161.5 -99h349v-183z"/>
<glyph glyph-name="threequarters" horiz-adv-x="2048" unicode="¾" d="M340 1258l-258 40q49 94 121 137q96 56 256 56q180 0 272 -67q65 -48 65 -124q0 -53 -36 -98q-25 -31 -90 -62q80 -26 118 -77t38 -118q0 -94 -73 -149q-99 -75 -303 -75q-191 0 -293 78q-59 45 -87 134l254 29q16 -48 45 -69t77 -21q56 0 87.5 27.5t31.5 65.5 q0 51 -56 79q-32 16 -149 18l28 141q86 0 116 22t30 55q0 26 -20.5 43.5t-60.5 17.5q-41 0 -74 -23q-24 -17 -39 -60zM1425 1491h215l-922 -1544h-213zM1648 237v219l-204 -219h204zM1648 71h-408v189l418 461h214v-484h99v-166h-99v-121h-224v121z"/>
<glyph glyph-name="questiondown" horiz-adv-x="1251" unicode="¿" d="M859 703h-407v359h407v-359zM466 602h380v-38q0 -97 -22 -157.5t-65.5 -110.5t-195.5 -176q-81 -66 -81 -121t32.5 -85.5t98.5 -30.5q71 0 117.5 47t59.5 164l388 -48q-20 -214 -155.5 -344.5t-415.5 -130.5q-218 0 -352 91q-182 123 -182 328q0 85 47 164t192 193 q101 80 127.5 128.5t26.5 126.5z"/>
<glyph glyph-name="Agrave" horiz-adv-x="1593" unicode="À" d="M957 559l-162 527l-161 -527h323zM1052 242h-516l-71 -242h-463l551 1466h494l551 -1466h-474zM457 1854h347l164 -298h-192z"/>
<glyph glyph-name="Aacute" horiz-adv-x="1593" unicode="Á" d="M957 559l-162 527l-161 -527h323zM1052 242h-516l-71 -242h-463l551 1466h494l551 -1466h-474zM787 1854h350l-323 -299h-195z"/>
<glyph glyph-name="Acircumflex" horiz-adv-x="1593" unicode="Â" d="M957 559l-162 527l-161 -527h323zM1052 242h-516l-71 -242h-463l551 1466h494l551 -1466h-474zM657 1841h289l222 -286h-248l-122 153l-122 -153h-248z"/>
<glyph glyph-name="Atilde" horiz-adv-x="1593" unicode="Ã" d="M957 559l-162 527l-161 -527h323zM1052 242h-516l-71 -242h-463l551 1466h494l551 -1466h-474zM999 1829h158q1 -26 1 -45q0 -111 -56 -172t-144 -61q-64 0 -194 53q-79 32 -109 32q-29 0 -45 -18t-17 -64h-156q-1 24 -1 42q0 107 59 170t140 63q35 0 66 -8t114.5 -43 t121.5 -35q27 0 43.5 18.5t18.5 67.5z"/>
<glyph glyph-name="Adieresis" horiz-adv-x="1593" unicode="Ä" d="M957 559l-162 527l-161 -527h323zM1052 242h-516l-71 -242h-463l551 1466h494l551 -1466h-474zM878 1809h263v-250h-263v250zM454 1809h260v-250h-260v250z"/>
<glyph glyph-name="Aring" horiz-adv-x="1593" unicode="Å" d="M945 577l-150 485l-149 -485h299zM692 1588q0 -44 30 -74t73 -30q42 0 72 30t30 73t-30 73t-72 30q-43 0 -73 -30t-30 -72zM587 1466q-32 56 -32 121q0 99 70.5 170t169.5 71q100 0 170.5 -70.5t70.5 -170.5q0 -65 -33 -121h44l551 -1466h-474l-77 242h-506l-76 -242 h-463l551 1466h34z"/>
<glyph glyph-name="AE" horiz-adv-x="2048" unicode="Æ" d="M811 1169l-211 -572h312v572h-101zM556 1466h1400v-313h-618v-233h562v-299h-562v-289h637v-332h-1063v263h-435l-97 -263h-456z"/>
<glyph glyph-name="Ccedilla" horiz-adv-x="1593" unicode="Ç" d="M1126 599l397 -120q-40 -167 -126 -279t-213.5 -169t-324.5 -57q-239 0 -390.5 69.5t-261.5 244.5t-110 448q0 364 193.5 559.5t547.5 195.5q277 0 435.5 -112t235.5 -344l-400 -89q-21 67 -44 98q-38 52 -93 80t-123 28q-154 0 -236 -124q-62 -92 -62 -289 q0 -244 74 -334.5t208 -90.5q130 0 196.5 73t96.5 212zM572 -165l30 118q94 23 176 23q171 0 236 -58t65 -137q0 -48 -29.5 -99t-105.5 -82t-202 -31q-114 0 -268 26v123q104 -20 221 -20q86 0 116.5 23t30.5 60q0 29 -25 50t-78 21q-71 0 -167 -17z"/>
<glyph glyph-name="Egrave" horiz-adv-x="1479" unicode="È" d="M149 1466h1214v-313h-760v-233h705v-299h-705v-289h782v-332h-1236v1466zM400 1854h347l164 -298h-192z"/>
<glyph glyph-name="Eacute" horiz-adv-x="1479" unicode="É" d="M149 1466h1214v-313h-760v-233h705v-299h-705v-289h782v-332h-1236v1466zM730 1854h350l-323 -299h-195z"/>
<glyph glyph-name="Ecircumflex" horiz-adv-x="1479" unicode="Ê" d="M149 1466h1214v-313h-760v-233h705v-299h-705v-289h782v-332h-1236v1466zM600 1841h289l222 -286h-248l-122 153l-122 -153h-248z"/>
<glyph glyph-name="Edieresis" horiz-adv-x="1479" unicode="Ë" d="M149 1466h1214v-313h-760v-233h705v-299h-705v-289h782v-332h-1236v1466zM821 1809h263v-250h-263v250zM397 1809h260v-250h-260v250z"/>
<glyph glyph-name="Igrave" horiz-adv-x="797" unicode="Ì" d="M168 1466h454v-1466h-454v1466zM59 1854h347l164 -298h-192z"/>
<glyph glyph-name="Iacute" horiz-adv-x="797" unicode="Í" d="M168 1466h454v-1466h-454v1466zM389 1854h350l-323 -299h-195z"/>
<glyph glyph-name="Icircumflex" horiz-adv-x="797" unicode="Î" d="M168 1466h454v-1466h-454v1466zM259 1841h289l222 -286h-248l-122 153l-122 -153h-248z"/>
<glyph glyph-name="Idieresis" horiz-adv-x="797" unicode="Ï" d="M168 1466h454v-1466h-454v1466zM480 1809h263v-250h-263v250zM56 1809h260v-250h-260v250z"/>
<glyph glyph-name="Eth" horiz-adv-x="1593" unicode="Ð" d="M609 1134v-291h220v-221h-220v-289h111q142 0 202 31.5t94 110t34 254.5q0 233 -76.5 319t-252.5 86h-112zM156 1466h673q199 0 321.5 -54t202.5 -154.5t115.5 -234.5t35.5 -284q0 -241 -55 -370.5t-149 -215t-204 -114.5q-147 -39 -267 -39h-673v622h-154v221h154v623z "/>
<glyph glyph-name="Ntilde" horiz-adv-x="1706" unicode="Ñ" d="M153 1466h423l552 -811v811h427v-1466h-427l-549 805v-805h-426v1466zM1055 1829h158q1 -26 1 -45q0 -111 -56 -172t-144 -61q-64 0 -194 53q-79 32 -109 32q-29 0 -45 -18t-17 -64h-156q-1 24 -1 42q0 107 59 170t140 63q35 0 66 -8t114.5 -43t121.5 -35q27 0 43.5 18.5 t18.5 67.5z"/>
<glyph glyph-name="Ograve" horiz-adv-x="1706" unicode="Ò" d="M546 730q0 -222 82.5 -319t224.5 -97q146 0 226 95t80 341q0 207 -83.5 302.5t-226.5 95.5q-137 0 -220 -97t-83 -321zM93 732q0 359 200 559t557 200q366 0 564 -196.5t198 -550.5q0 -257 -86.5 -421.5t-250 -256t-407.5 -91.5q-248 0 -410.5 79t-263.5 250t-101 428z M513 1854h347l164 -298h-192z"/>
<glyph glyph-name="Oacute" horiz-adv-x="1706" unicode="Ó" d="M546 730q0 -222 82.5 -319t224.5 -97q146 0 226 95t80 341q0 207 -83.5 302.5t-226.5 95.5q-137 0 -220 -97t-83 -321zM93 732q0 359 200 559t557 200q366 0 564 -196.5t198 -550.5q0 -257 -86.5 -421.5t-250 -256t-407.5 -91.5q-248 0 -410.5 79t-263.5 250t-101 428z M843 1854h350l-323 -299h-195z"/>
<glyph glyph-name="Ocircumflex" horiz-adv-x="1706" unicode="Ô" d="M546 730q0 -222 82.5 -319t224.5 -97q146 0 226 95t80 341q0 207 -83.5 302.5t-226.5 95.5q-137 0 -220 -97t-83 -321zM93 732q0 359 200 559t557 200q366 0 564 -196.5t198 -550.5q0 -257 -86.5 -421.5t-250 -256t-407.5 -91.5q-248 0 -410.5 79t-263.5 250t-101 428z M713 1841h289l222 -286h-248l-122 153l-122 -153h-248z"/>
<glyph glyph-name="Otilde" horiz-adv-x="1706" unicode="Õ" d="M546 730q0 -222 82.5 -319t224.5 -97q146 0 226 95t80 341q0 207 -83.5 302.5t-226.5 95.5q-137 0 -220 -97t-83 -321zM93 732q0 359 200 559t557 200q366 0 564 -196.5t198 -550.5q0 -257 -86.5 -421.5t-250 -256t-407.5 -91.5q-248 0 -410.5 79t-263.5 250t-101 428z M1055 1829h158q1 -26 1 -45q0 -111 -56 -172t-144 -61q-64 0 -194 53q-79 32 -109 32q-29 0 -45 -18t-17 -64h-156q-1 24 -1 42q0 107 59 170t140 63q35 0 66 -8t114.5 -43t121.5 -35q27 0 43.5 18.5t18.5 67.5z"/>
<glyph glyph-name="Odieresis" horiz-adv-x="1706" unicode="Ö" d="M546 730q0 -222 82.5 -319t224.5 -97q146 0 226 95t80 341q0 207 -83.5 302.5t-226.5 95.5q-137 0 -220 -97t-83 -321zM93 732q0 359 200 559t557 200q366 0 564 -196.5t198 -550.5q0 -257 -86.5 -421.5t-250 -256t-407.5 -91.5q-248 0 -410.5 79t-263.5 250t-101 428z M934 1809h263v-250h-263v250zM510 1809h260v-250h-260v250z"/>
<glyph glyph-name="multiply" horiz-adv-x="1352" unicode="×" d="M355 1280l318 -315l315 315l232 -231l-317 -315l317 -319l-232 -229l-315 319l-318 -319l-230 229l318 319l-318 315z"/>
<glyph glyph-name="Oslash" horiz-adv-x="1706" unicode="Ø" d="M1150 861l-501 -474q73 -73 203 -73q145 0 225.5 94t80.5 326q0 64 -8 127zM1054 1075q-75 73 -206 73q-137 0 -220 -96.5t-83 -313.5q0 -68 10 -137zM1346 1352l174 164l151 -161l-173 -164q53 -80 83 -201.5t30 -254.5q0 -257 -92.5 -422.5t-255 -251.5t-409.5 -86 q-176 0 -315 45q-90 29 -178 95l-175 -167l-151 159l176 168q-119 185 -119 454q0 361 199.5 561.5t554.5 200.5q315 0 500 -139z"/>
<glyph glyph-name="Ugrave" horiz-adv-x="1706" unicode="Ù" d="M1104 1466h452v-874q0 -130 -40.5 -245.5t-127 -202t-181.5 -121.5q-132 -49 -317 -49q-107 0 -233.5 15t-211.5 59.5t-155.5 126.5t-96.5 169q-42 140 -42 248v874h452v-895q0 -120 66.5 -187.5t184.5 -67.5q117 0 183.5 66.5t66.5 188.5v895zM513 1854h347l164 -298 h-192z"/>
<glyph glyph-name="Uacute" horiz-adv-x="1706" unicode="Ú" d="M1104 1466h452v-874q0 -130 -40.5 -245.5t-127 -202t-181.5 -121.5q-132 -49 -317 -49q-107 0 -233.5 15t-211.5 59.5t-155.5 126.5t-96.5 169q-42 140 -42 248v874h452v-895q0 -120 66.5 -187.5t184.5 -67.5q117 0 183.5 66.5t66.5 188.5v895zM843 1854h350l-323 -299 h-195z"/>
<glyph glyph-name="Ucircumflex" horiz-adv-x="1706" unicode="Û" d="M1104 1466h452v-874q0 -130 -40.5 -245.5t-127 -202t-181.5 -121.5q-132 -49 -317 -49q-107 0 -233.5 15t-211.5 59.5t-155.5 126.5t-96.5 169q-42 140 -42 248v874h452v-895q0 -120 66.5 -187.5t184.5 -67.5q117 0 183.5 66.5t66.5 188.5v895zM713 1841h289l222 -286 h-248l-122 153l-122 -153h-248z"/>
<glyph glyph-name="Udieresis" horiz-adv-x="1706" unicode="Ü" d="M1104 1466h452v-874q0 -130 -40.5 -245.5t-127 -202t-181.5 -121.5q-132 -49 -317 -49q-107 0 -233.5 15t-211.5 59.5t-155.5 126.5t-96.5 169q-42 140 -42 248v874h452v-895q0 -120 66.5 -187.5t184.5 -67.5q117 0 183.5 66.5t66.5 188.5v895zM934 1809h263v-250h-263 v250zM510 1809h260v-250h-260v250z"/>
<glyph glyph-name="Yacute" horiz-adv-x="1593" unicode="Ý" d="M2 1466h503l296 -495l296 495h500l-570 -852v-614h-454v614zM787 1854h350l-323 -299h-195z"/>
<glyph glyph-name="Thorn" horiz-adv-x="1479" unicode="Þ" d="M603 580h111q131 0 184 45.5t53 116.5q0 68 -46 116.5t-173 48.5h-129v-327zM148 1466h455v-261l298 -1q246 0 368.5 -117t122.5 -333q0 -221 -133.5 -346t-407.5 -125h-248v-283h-455v1466z"/>
<glyph glyph-name="germandbls" d="M119 0v1017q0 129 52 241.5t171.5 172.5t317.5 60q242 0 349.5 -86.5t107.5 -211.5q0 -82 -58.5 -199t-58.5 -153q0 -27 13 -51.5t57 -64.5q130 -119 186 -233q38 -80 38 -178q0 -147 -99 -242.5t-265 -95.5q-122 0 -212 42q-67 32 -132 108l233 138q35 -44 69 -44 q35 0 58 23t23 57q0 30 -27.5 71t-179.5 188q-78 76 -109 135q-20 38 -20 86q0 59 59 175.5t59 175.5q0 45 -30.5 74.5t-80.5 29.5q-57 0 -94.5 -46t-37.5 -164v-1025h-389z" unicode="ß"/>
<glyph glyph-name="agrave" d="M847 504q-84 -30 -175 -53q-124 -33 -157 -65q-34 -33 -34 -75q0 -48 33.5 -78.5t98.5 -30.5q68 0 126.5 33t83 80.5t24.5 123.5v65zM494 718l-389 41q22 102 63.5 160.5t119.5 101.5q56 31 154 48t212 17q183 0 294 -20.5t185 -85.5q52 -45 82 -127.5t30 -157.5v-469 q0 -75 9.5 -117.5t41.5 -108.5h-382q-23 41 -30 62.5t-14 67.5q-80 -77 -159 -110q-108 -44 -251 -44q-190 0 -288.5 88t-98.5 217q0 121 71 199t262 116q229 46 297 64.5t144 48.5q0 75 -31 105t-109 30q-100 0 -150 -32q-39 -25 -63 -94zM343 1491h347l164 -298h-192z" unicode="à"/>
<glyph glyph-name="aacute" d="M847 504q-84 -30 -175 -53q-124 -33 -157 -65q-34 -33 -34 -75q0 -48 33.5 -78.5t98.5 -30.5q68 0 126.5 33t83 80.5t24.5 123.5v65zM494 718l-389 41q22 102 63.5 160.5t119.5 101.5q56 31 154 48t212 17q183 0 294 -20.5t185 -85.5q52 -45 82 -127.5t30 -157.5v-469 q0 -75 9.5 -117.5t41.5 -108.5h-382q-23 41 -30 62.5t-14 67.5q-80 -77 -159 -110q-108 -44 -251 -44q-190 0 -288.5 88t-98.5 217q0 121 71 199t262 116q229 46 297 64.5t144 48.5q0 75 -31 105t-109 30q-100 0 -150 -32q-39 -25 -63 -94zM673 1491h350l-323 -299h-195z " unicode="á"/>
<glyph glyph-name="acircumflex" d="M847 504q-84 -30 -175 -53q-124 -33 -157 -65q-34 -33 -34 -75q0 -48 33.5 -78.5t98.5 -30.5q68 0 126.5 33t83 80.5t24.5 123.5v65zM494 718l-389 41q22 102 63.5 160.5t119.5 101.5q56 31 154 48t212 17q183 0 294 -20.5t185 -85.5q52 -45 82 -127.5t30 -157.5v-469 q0 -75 9.5 -117.5t41.5 -108.5h-382q-23 41 -30 62.5t-14 67.5q-80 -77 -159 -110q-108 -44 -251 -44q-190 0 -288.5 88t-98.5 217q0 121 71 199t262 116q229 46 297 64.5t144 48.5q0 75 -31 105t-109 30q-100 0 -150 -32q-39 -25 -63 -94zM543 1478h289l222 -286h-248 l-122 153l-122 -153h-248z" unicode="â"/>
<glyph glyph-name="atilde" d="M847 504q-84 -30 -175 -53q-124 -33 -157 -65q-34 -33 -34 -75q0 -48 33.5 -78.5t98.5 -30.5q68 0 126.5 33t83 80.5t24.5 123.5v65zM494 718l-389 41q22 102 63.5 160.5t119.5 101.5q56 31 154 48t212 17q183 0 294 -20.5t185 -85.5q52 -45 82 -127.5t30 -157.5v-469 q0 -75 9.5 -117.5t41.5 -108.5h-382q-23 41 -30 62.5t-14 67.5q-80 -77 -159 -110q-108 -44 -251 -44q-190 0 -288.5 88t-98.5 217q0 121 71 199t262 116q229 46 297 64.5t144 48.5q0 75 -31 105t-109 30q-100 0 -150 -32q-39 -25 -63 -94zM885 1466h158q1 -26 1 -45 q0 -111 -56 -172t-144 -61q-64 0 -194 53q-79 32 -109 32q-29 0 -45 -18t-17 -64h-156q-1 24 -1 42q0 107 59 170t140 63q35 0 66 -8t114.5 -43t121.5 -35q27 0 43.5 18.5t18.5 67.5z" unicode="ã"/>
<glyph glyph-name="adieresis" d="M847 504q-84 -30 -175 -53q-124 -33 -157 -65q-34 -33 -34 -75q0 -48 33.5 -78.5t98.5 -30.5q68 0 126.5 33t83 80.5t24.5 123.5v65zM494 718l-389 41q22 102 63.5 160.5t119.5 101.5q56 31 154 48t212 17q183 0 294 -20.5t185 -85.5q52 -45 82 -127.5t30 -157.5v-469 q0 -75 9.5 -117.5t41.5 -108.5h-382q-23 41 -30 62.5t-14 67.5q-80 -77 -159 -110q-108 -44 -251 -44q-190 0 -288.5 88t-98.5 217q0 121 71 199t262 116q229 46 297 64.5t144 48.5q0 75 -31 105t-109 30q-100 0 -150 -32q-39 -25 -63 -94zM764 1446h263v-250h-263v250z M340 1446h260v-250h-260v250z" unicode="ä"/>
<glyph glyph-name="aring" d="M847 504q-84 -30 -175 -53q-124 -33 -157 -65q-34 -33 -34 -75q0 -48 33.5 -78.5t98.5 -30.5q68 0 126.5 33t83 80.5t24.5 123.5v65zM494 718l-389 41q22 102 63.5 160.5t119.5 101.5q56 31 154 48t212 17q183 0 294 -20.5t185 -85.5q52 -45 82 -127.5t30 -157.5v-469 q0 -75 9.5 -117.5t41.5 -108.5h-382q-23 41 -30 62.5t-14 67.5q-80 -77 -159 -110q-108 -44 -251 -44q-190 0 -288.5 88t-98.5 217q0 121 71 199t262 116q229 46 297 64.5t144 48.5q0 75 -31 105t-109 30q-100 0 -150 -32q-39 -25 -63 -94zM785 1404q0 43 -30 73t-73 30 t-73 -30t-30 -73t30 -73t73 -30t73 30t30 73zM923 1403q0 -100 -70.5 -170t-169.5 -70q-100 0 -170.5 70t-70.5 170t70.5 170.5t170.5 70.5q99 0 169.5 -70.5t70.5 -170.5z" unicode="å"/>
<glyph glyph-name="ae" horiz-adv-x="2048" unicode="æ" d="M825 507l-125 -41q-24 -8 -42 -11q-99 -19 -138.5 -57t-39.5 -79q0 -46 33 -78t87 -32q55 0 113 28t89 85q23 41 23 109v76zM1584 626q-8 103 -52.5 160t-125.5 57q-72 0 -123.5 -52t-66.5 -165h368zM1990 431h-771q11 -96 47 -143q55 -71 144 -71q50 0 86.5 22.5 t71.5 77.5l397 -35q-81 -151 -209.5 -228.5t-343.5 -77.5q-165 0 -284 48q-90 36 -173 120q-123 -90 -233.5 -129t-245.5 -39q-203 0 -305 85.5t-102 223.5q0 69 32 130t81 97q65 47 141 73q35 12 171 38t175 36q67 17 156 47q-2 80 -32.5 109t-111.5 29q-85 0 -127 -30.5 t-59 -96.5l-391 45q29 106 68 160q53 74 161.5 119.5t305.5 45.5q158 0 260 -28q73 -20 161 -77q92 58 167.5 81t178.5 23q154 0 264.5 -44t180.5 -119.5t100 -150.5q39 -99 39 -274v-67z"/>
<glyph glyph-name="ccedilla" d="M915 415l387 -44q-32 -121 -105 -209.5t-186.5 -137.5t-288.5 -49q-169 0 -281.5 31.5t-193.5 102t-127 165.5t-46 252q0 164 56 273q41 80 112 143.5t146 94.5q119 49 305 49q260 0 396.5 -93t191.5 -272l-383 -51q-18 68 -65.5 102.5t-127.5 34.5q-101 0 -163.5 -72.5 t-62.5 -219.5q0 -131 62 -199t158 -68q80 0 134.5 41t81.5 126zM458 -165l30 118q94 23 176 23q171 0 236 -58t65 -137q0 -48 -29.5 -99t-105.5 -82t-202 -31q-114 0 -268 26v123q104 -20 221 -20q86 0 116.5 23t30.5 60q0 29 -25 50t-78 21q-71 0 -167 -17z" unicode="ç"/>
<glyph glyph-name="egrave" d="M888 625q-12 118 -63.5 169t-135.5 51q-97 0 -155 -77q-37 -48 -47 -143h401zM1302 430h-816q11 -98 53 -146q59 -69 154 -69q60 0 114 30q33 19 71 67l401 -37q-92 -160 -222 -229.5t-373 -69.5q-211 0 -332 59.5t-200.5 189t-79.5 304.5q0 249 159.5 403t440.5 154 q228 0 360 -69t201 -200t69 -341v-46zM343 1491h347l164 -298h-192z" unicode="è"/>
<glyph glyph-name="eacute" d="M888 625q-12 118 -63.5 169t-135.5 51q-97 0 -155 -77q-37 -48 -47 -143h401zM1302 430h-816q11 -98 53 -146q59 -69 154 -69q60 0 114 30q33 19 71 67l401 -37q-92 -160 -222 -229.5t-373 -69.5q-211 0 -332 59.5t-200.5 189t-79.5 304.5q0 249 159.5 403t440.5 154 q228 0 360 -69t201 -200t69 -341v-46zM673 1491h350l-323 -299h-195z" unicode="é"/>
<glyph glyph-name="ecircumflex" d="M888 625q-12 118 -63.5 169t-135.5 51q-97 0 -155 -77q-37 -48 -47 -143h401zM1302 430h-816q11 -98 53 -146q59 -69 154 -69q60 0 114 30q33 19 71 67l401 -37q-92 -160 -222 -229.5t-373 -69.5q-211 0 -332 59.5t-200.5 189t-79.5 304.5q0 249 159.5 403t440.5 154 q228 0 360 -69t201 -200t69 -341v-46zM543 1478h289l222 -286h-248l-122 153l-122 -153h-248z" unicode="ê"/>
<glyph glyph-name="edieresis" d="M888 625q-12 118 -63.5 169t-135.5 51q-97 0 -155 -77q-37 -48 -47 -143h401zM1302 430h-816q11 -98 53 -146q59 -69 154 -69q60 0 114 30q33 19 71 67l401 -37q-92 -160 -222 -229.5t-373 -69.5q-211 0 -332 59.5t-200.5 189t-79.5 304.5q0 249 159.5 403t440.5 154 q228 0 360 -69t201 -200t69 -341v-46zM764 1446h263v-250h-263v250zM340 1446h260v-250h-260v250z" unicode="ë"/>
<glyph glyph-name="igrave" horiz-adv-x="682" unicode="ì" d="M138 1062h407v-1062h-407v1062zM1 1491h347l164 -298h-192z"/>
<glyph glyph-name="iacute" horiz-adv-x="682" unicode="í" d="M138 1062h407v-1062h-407v1062zM331 1491h350l-323 -299h-195z"/>
<glyph glyph-name="icircumflex" horiz-adv-x="682" unicode="î" d="M138 1062h407v-1062h-407v1062zM201 1478h289l222 -286h-248l-122 153l-122 -153h-248z"/>
<glyph glyph-name="idieresis" horiz-adv-x="682" unicode="ï" d="M138 1062h407v-1062h-407v1062zM422 1446h263v-250h-263v250zM-2 1446h260v-250h-260v250z"/>
<glyph glyph-name="eth" d="M483 528q0 -143 57.5 -210t139.5 -67q76 0 142 65.5t66 230.5q0 144 -64.5 202t-140.5 58q-84 0 -142 -67t-58 -212zM321 1200l253 90q-65 64 -116.5 102.5t-118.5 73.5h412q60 -32 113 -72l203 72l37 -101l-146 -54q166 -168 249 -350t83 -379q0 -285 -161 -445.5 t-442 -160.5q-191 0 -333.5 72.5t-210.5 207t-68 275.5q0 146 66 271t186 192.5t242 67.5q60 0 117 -17q38 -12 94 -46q-68 119 -129 201l-293 -107z" unicode="ð"/>
<glyph glyph-name="ntilde" d="M123 1062h379v-173q85 106 172 151.5t212 45.5q169 0 264.5 -100.5t95.5 -310.5v-675h-409v584q0 100 -37 141.5t-104 41.5q-74 0 -120 -56t-46 -201v-510h-407v1062zM885 1466h158q1 -26 1 -45q0 -111 -56 -172t-144 -61q-64 0 -194 53q-79 32 -109 32q-29 0 -45 -18 t-17 -64h-156q-1 24 -1 42q0 107 59 170t140 63q35 0 66 -8t114.5 -43t121.5 -35q27 0 43.5 18.5t18.5 67.5z" unicode="ñ"/>
<glyph glyph-name="ograve" d="M481 529q0 -142 57.5 -210t144.5 -68q88 0 144.5 67t56.5 215q0 138 -57 205.5t-141 67.5q-89 0 -147 -68.5t-58 -208.5zM73 528q0 243 164 400.5t443 157.5q319 0 482 -185q131 -149 131 -367q0 -245 -162.5 -401.5t-449.5 -156.5q-256 0 -414 130q-194 161 -194 422z M343 1491h347l164 -298h-192z" unicode="ò"/>
<glyph glyph-name="oacute" d="M481 529q0 -142 57.5 -210t144.5 -68q88 0 144.5 67t56.5 215q0 138 -57 205.5t-141 67.5q-89 0 -147 -68.5t-58 -208.5zM73 528q0 243 164 400.5t443 157.5q319 0 482 -185q131 -149 131 -367q0 -245 -162.5 -401.5t-449.5 -156.5q-256 0 -414 130q-194 161 -194 422z M673 1491h350l-323 -299h-195z" unicode="ó"/>
<glyph glyph-name="ocircumflex" d="M481 529q0 -142 57.5 -210t144.5 -68q88 0 144.5 67t56.5 215q0 138 -57 205.5t-141 67.5q-89 0 -147 -68.5t-58 -208.5zM73 528q0 243 164 400.5t443 157.5q319 0 482 -185q131 -149 131 -367q0 -245 -162.5 -401.5t-449.5 -156.5q-256 0 -414 130q-194 161 -194 422z M543 1478h289l222 -286h-248l-122 153l-122 -153h-248z" unicode="ô"/>
<glyph glyph-name="otilde" d="M481 529q0 -142 57.5 -210t144.5 -68q88 0 144.5 67t56.5 215q0 138 -57 205.5t-141 67.5q-89 0 -147 -68.5t-58 -208.5zM73 528q0 243 164 400.5t443 157.5q319 0 482 -185q131 -149 131 -367q0 -245 -162.5 -401.5t-449.5 -156.5q-256 0 -414 130q-194 161 -194 422z M885 1466h158q1 -26 1 -45q0 -111 -56 -172t-144 -61q-64 0 -194 53q-79 32 -109 32q-29 0 -45 -18t-17 -64h-156q-1 24 -1 42q0 107 59 170t140 63q35 0 66 -8t114.5 -43t121.5 -35q27 0 43.5 18.5t18.5 67.5z" unicode="õ"/>
<glyph glyph-name="odieresis" d="M481 529q0 -142 57.5 -210t144.5 -68q88 0 144.5 67t56.5 215q0 138 -57 205.5t-141 67.5q-89 0 -147 -68.5t-58 -208.5zM73 528q0 243 164 400.5t443 157.5q319 0 482 -185q131 -149 131 -367q0 -245 -162.5 -401.5t-449.5 -156.5q-256 0 -414 130q-194 161 -194 422z M764 1446h263v-250h-263v250zM340 1446h260v-250h-260v250z" unicode="ö"/>
<glyph glyph-name="divide" horiz-adv-x="1352" unicode="÷" d="M470 478h401v-373h-401v373zM127 896h1091v-326h-1091v326zM470 1356h401v-369h-401v369z"/>
<glyph glyph-name="oslash" d="M545 270q33 -26 54 -34q40 -14 88 -14q98 0 161.5 77.5t63.5 243.5q0 51 -17 117zM821 785q-28 27 -48 35q-39 16 -88 16q-101 0 -166.5 -77.5t-65.5 -236.5q0 -53 17 -126zM1153 1156l104 -94l-124 -136q69 -58 114 -164t45 -230q0 -244 -161 -400t-438 -156 q-113 0 -199 19q-59 13 -149 56l-133 -148l-105 97l127 135q-85 91 -123 183t-38 208q0 245 163 402.5t438 157.5q112 0 200 -21q59 -14 146 -58z" unicode="ø"/>
<glyph glyph-name="ugrave" d="M1242 0h-380v172q-85 -106 -171.5 -151t-212.5 -45q-168 0 -263.5 100.5t-95.5 309.5v676h409v-584q0 -100 37 -142t104 -42q73 0 119.5 56t46.5 201v511h407v-1062zM343 1491h347l164 -298h-192z" unicode="ù"/>
<glyph glyph-name="uacute" d="M1242 0h-380v172q-85 -106 -171.5 -151t-212.5 -45q-168 0 -263.5 100.5t-95.5 309.5v676h409v-584q0 -100 37 -142t104 -42q73 0 119.5 56t46.5 201v511h407v-1062zM673 1491h350l-323 -299h-195z" unicode="ú"/>
<glyph glyph-name="ucircumflex" d="M1242 0h-380v172q-85 -106 -171.5 -151t-212.5 -45q-168 0 -263.5 100.5t-95.5 309.5v676h409v-584q0 -100 37 -142t104 -42q73 0 119.5 56t46.5 201v511h407v-1062zM543 1478h289l222 -286h-248l-122 153l-122 -153h-248z" unicode="û"/>
<glyph glyph-name="udieresis" d="M1242 0h-380v172q-85 -106 -171.5 -151t-212.5 -45q-168 0 -263.5 100.5t-95.5 309.5v676h409v-584q0 -100 37 -142t104 -42q73 0 119.5 56t46.5 201v511h407v-1062zM764 1446h263v-250h-263v250zM340 1446h260v-250h-260v250z" unicode="ü"/>
<glyph glyph-name="yacute" horiz-adv-x="1251" unicode="ý" d="M5 1062h430l219 -707l203 707h401l-421 -1135q-72 -194 -147 -262q-106 -96 -323 -96q-88 0 -272 24l-32 284q88 -28 196 -28q72 0 116.5 33t75.5 118zM616 1491h350l-323 -299h-195z"/>
<glyph glyph-name="thorn" d="M533 528q0 -126 53 -187t134 -61q71 0 119 58.5t48 198.5q0 129 -50 189.5t-122 60.5q-78 0 -130 -61t-52 -198zM125 -404v1870h411v-507q64 67 134 97t168 30q218 0 337 -159.5t119 -406.5q0 -265 -127 -404.5t-321 -139.5q-94 0 -171.5 32t-138.5 95v-507h-411z" unicode="þ"/>
<glyph glyph-name="dotlessi" horiz-adv-x="682" unicode="ı" d="M138 1062h407v-1062h-407v1062z"/>
<glyph glyph-name="OE" horiz-adv-x="2048" unicode="Œ" d="M741 1155q-74 0 -134.5 -47.5t-84 -126.5t-23.5 -275q0 -164 31.5 -242.5t91.5 -117.5t119 -39q61 0 123 42.5t90 120.5t28 277q0 162 -26.5 242t-86 123t-128.5 43zM1013 1466h941v-313h-542v-233h486v-299h-486v-289h572v-332h-971v162q-64 -93 -138 -134 q-98 -54 -236 -54q-249 0 -392 168q-176 208 -176 586q0 382 173 589q146 174 376 174q133 0 225.5 -45.5t167.5 -134.5v155z"/>
<glyph glyph-name="oe" horiz-adv-x="2048" unicode="œ" d="M466 543q0 -148 43.5 -209t126.5 -61q84 0 130 58t46 225q0 139 -46 196.5t-115 57.5q-88 0 -136.5 -58t-48.5 -209zM1583 629q-12 118 -58 166.5t-122 48.5q-75 0 -125.5 -50.5t-64.5 -164.5h370zM1990 436h-773q9 -118 58 -168t128 -50q52 0 90 23t74 75l392 -36 q-67 -149 -207 -226.5t-333 -77.5q-244 0 -415 118q-99 -65 -181.5 -91.5t-182.5 -26.5q-259 0 -420 159.5t-161 407.5q0 275 201 431q143 112 374 112q112 0 198 -27t189 -96q92 62 186 92.5t211 30.5q267 0 420.5 -154t153.5 -426q0 -23 -2 -70z"/>
<glyph glyph-name="Scaron" horiz-adv-x="1479" unicode="Š" d="M71 485l431 27q14 -105 57 -160q70 -89 200 -89q97 0 149.5 45.5t52.5 105.5q0 57 -50 102t-232 85q-298 67 -425 178q-128 111 -128 283q0 113 65.5 213.5t197 158t360.5 57.5q281 0 428.5 -104.5t175.5 -332.5l-427 -25q-17 99 -71.5 144t-150.5 45q-79 0 -119 -33.5 t-40 -81.5q0 -35 33 -63q32 -29 152 -54q297 -64 425.5 -129.5t187 -162.5t58.5 -217q0 -141 -78 -260t-218 -180.5t-353 -61.5q-374 0 -518 144t-163 366zM881 1555h-288l-222 286h247l122 -153l122 153h249z"/>
<glyph glyph-name="scaron" horiz-adv-x="1251" unicode="š" d="M51 294l404 38q25 -72 70 -103t120 -31q82 0 127 35q35 26 35 65q0 44 -46 68q-33 17 -175 42q-212 37 -294.5 68.5t-139 106.5t-56.5 171q0 105 61 181t168 113.5t287 37.5q190 0 280.5 -29t151 -90t100.5 -165l-386 -38q-15 51 -50 75q-48 32 -116 32 q-69 0 -100.5 -24.5t-31.5 -59.5q0 -39 40 -59t174 -36q203 -23 302 -64t151.5 -117t52.5 -167q0 -92 -55.5 -179t-175 -138.5t-325.5 -51.5q-291 0 -414.5 83t-158.5 236zM767 1192h-288l-222 286h247l122 -153l122 153h249z"/>
<glyph glyph-name="Ydieresis" horiz-adv-x="1593" unicode="Ÿ" d="M2 1466h503l296 -495l296 495h500l-570 -852v-614h-454v614zM878 1809h263v-250h-263v250zM454 1809h260v-250h-260v250z"/>
<glyph glyph-name="circumflex" horiz-adv-x="682" unicode="ˆ" d="M201 1478h289l222 -286h-248l-122 153l-122 -153h-248z"/>
<glyph glyph-name="caron" horiz-adv-x="682" unicode="ˇ" d="M482 1192h-288l-222 286h247l122 -153l122 153h249z"/>
<glyph glyph-name="ring" horiz-adv-x="682" unicode="˚" d="M443 1404q0 43 -30 73t-73 30t-73 -30t-30 -73t30 -73t73 -30t73 30t30 73zM581 1403q0 -100 -70.5 -170t-169.5 -70q-100 0 -170.5 70t-70.5 170t70.5 170.5t170.5 70.5q99 0 169.5 -70.5t70.5 -170.5z"/>
<glyph glyph-name="tilde" horiz-adv-x="682" unicode="˜" d="M543 1466h158q1 -26 1 -45q0 -111 -56 -172t-144 -61q-64 0 -194 53q-79 32 -109 32q-29 0 -45 -18t-17 -64h-156q-1 24 -1 42q0 107 59 170t140 63q35 0 66 -8t114.5 -43t121.5 -35q27 0 43.5 18.5t18.5 67.5z"/>
<glyph glyph-name="Alpha" horiz-adv-x="1593" unicode="Α" d="M957 559l-162 527l-161 -527h323zM1052 242h-516l-71 -242h-463l551 1466h494l551 -1466h-474z"/>
<glyph glyph-name="Beta" horiz-adv-x="1593" unicode="Β" d="M608 315h231q117 0 165 41.5t48 111.5q0 65 -47.5 104.5t-166.5 39.5h-230v-297zM608 891h197q106 0 147.5 36.5t41.5 105.5q0 64 -41.5 100t-144.5 36h-200v-278zM151 1466h848q212 0 325.5 -105t113.5 -260q0 -130 -81 -223q-54 -62 -158 -98q158 -38 232.5 -130.5 t74.5 -232.5q0 -114 -53 -205t-145 -144q-57 -33 -172 -48q-153 -20 -203 -20h-782v1466z"/>
<glyph glyph-name="Gamma" d="M1311 1106h-709v-1106h-452v1466h1161v-360z" unicode="Γ"/>
<glyph glyph-name="Delta" horiz-adv-x="1593" unicode="Δ" d="M1030 315l-235 770l-242 -770h477zM1595 0h-1597l551 1466h495z"/>
<glyph glyph-name="Epsilon" horiz-adv-x="1479" unicode="Ε" d="M149 1466h1214v-313h-760v-233h705v-299h-705v-289h782v-332h-1236v1466z"/>
<glyph glyph-name="Zeta" horiz-adv-x="1479" unicode="Ζ" d="M113 1466h1282v-293l-822 -858h852v-315h-1391v304l813 849h-734v313z"/>
<glyph glyph-name="Eta" horiz-adv-x="1706" unicode="Η" d="M152 1466h453v-513h495v513h455v-1466h-455v593h-495v-593h-453v1466z"/>
<glyph glyph-name="Theta" horiz-adv-x="1706" unicode="Θ" d="M1057 604h-400v277h400v-277zM852 315q152 0 229.5 97.5t77.5 337.5q0 401 -309 401q-303 0 -303 -422q0 -414 305 -414zM850 1491q367 0 564.5 -196t197.5 -552q0 -371 -195.5 -569.5t-548.5 -198.5q-396 0 -585 209t-189 547q0 355 196 557.5t560 202.5z"/>
<glyph glyph-name="Iota" horiz-adv-x="797" unicode="Ι" d="M168 1466h454v-1466h-454v1466z"/>
<glyph glyph-name="Kappa" horiz-adv-x="1706" unicode="Κ" d="M152 1466h453v-554l475 554h602l-534 -553l558 -913h-558l-309 603l-234 -245v-358h-453v1466z"/>
<glyph glyph-name="Lambda" horiz-adv-x="1593" unicode="Λ" d="M1591 0h-473l-332 1057l-323 -1057h-461l545 1466h491z"/>
<glyph glyph-name="Mu" horiz-adv-x="1933" unicode="Μ" d="M145 1466h596l230 -892l229 892h594v-1466h-370v1118l-287 -1118h-335l-286 1118v-1118h-371v1466z"/>
<glyph glyph-name="Nu" horiz-adv-x="1706" unicode="Ν" d="M153 1466h423l552 -811v811h427v-1466h-427l-549 805v-805h-426v1466z"/>
<glyph glyph-name="Xi" horiz-adv-x="1479" unicode="Ξ" d="M1358 0h-1237v332h1237v-332zM1174 621h-865v297h865v-297zM1335 1151h-1194v315h1194v-315z"/>
<glyph glyph-name="Omicron" horiz-adv-x="1706" unicode="Ο" d="M546 730q0 -222 82.5 -319t224.5 -97q146 0 226 95t80 341q0 207 -83.5 302.5t-226.5 95.5q-137 0 -220 -97t-83 -321zM93 732q0 359 200 559t557 200q366 0 564 -196.5t198 -550.5q0 -257 -86.5 -421.5t-250 -256t-407.5 -91.5q-248 0 -410.5 79t-263.5 250t-101 428z "/>
<glyph glyph-name="Pi" horiz-adv-x="1706" unicode="Π" d="M1554 0h-452v1106h-498v-1106h-452v1466h1402v-1466z"/>
<glyph glyph-name="Rho" horiz-adv-x="1479" unicode="Ρ" d="M603 841h111q131 0 184 45.5t53 116.5q0 69 -46 117t-173 48h-129v-327zM148 1466h753q246 0 368.5 -117t122.5 -333q0 -222 -133.5 -347t-407.5 -125h-248v-544h-455v1466z"/>
<glyph glyph-name="Sigma" horiz-adv-x="1479" unicode="Σ" d="M1389 0h-1237v317l434 441l-434 405v303h1214v-315h-725l430 -393l-430 -426h748v-332z"/>
<glyph glyph-name="Tau" horiz-adv-x="1479" unicode="Τ" d="M47 1466h1377v-362h-462v-1104h-453v1104h-462v362z"/>
<glyph glyph-name="Upsilon" horiz-adv-x="1593" unicode="Υ" d="M2 1466h503l296 -495l296 495h500l-570 -852v-614h-454v614z"/>
<glyph glyph-name="Phi" horiz-adv-x="1892" unicode="Φ" d="M741 455v606q-101 -29 -163 -114.5t-62 -194.5q0 -102 61.5 -183t163.5 -114zM1153 459q107 31 166 110.5t59 190.5q0 106 -60.5 190.5t-164.5 118.5v-610zM1153 1354q668 -70 668 -600q0 -541 -668 -602v-172h-412v176q-667 57 -667 598q0 531 667 600v133h412v-133z "/>
<glyph glyph-name="Chi" horiz-adv-x="1593" unicode="Χ" d="M49 1466h499l260 -451l252 451h494l-456 -710l499 -756h-509l-289 471l-290 -471h-506l506 764z"/>
<glyph glyph-name="Psi" horiz-adv-x="1937" unicode="Ψ" d="M1853 1001q0 -274 -162.5 -445t-496.5 -171v-385h-453v381q-334 0 -496.5 171t-162.5 445v465h453v-485q0 -79 10.5 -129.5t55.5 -88.5t140 -38v745h453v-741q95 0 140.5 38t56 88.5t10.5 129.5v485h452v-465z"/>
<glyph glyph-name="alpha" horiz-adv-x="1389" unicode="α" d="M653 240q80 0 118 68.5t38 219.5q0 293 -160 293q-82 0 -121 -71.5t-39 -221.5q0 -288 164 -288zM1352 1063q-72 -126 -105 -275.5t-33 -269.5q0 -87 30.5 -237t92.5 -281h-372q-26 52 -47 119q-99 -144 -318 -144q-240 0 -381 175.5t-141 398.5q0 235 145.5 385.5 t380.5 150.5q193 0 324 -137q11 53 43 115h381z"/>
<glyph glyph-name="beta" horiz-adv-x="1319" unicode="β" d="M592 891q76 13 126 65.5t50 128.5q0 150 -127 150q-64 0 -97.5 -52.5t-33.5 -146.5v-639q68 -155 201 -155q75 0 118 45.5t43 128.5q0 102 -66 174.5t-214 85.5v215zM942 838q130 -30 214.5 -148.5t84.5 -269.5q0 -214 -112.5 -329.5t-309.5 -115.5q-203 0 -309 123v-504 h-391v1422q0 232 137.5 353.5t380.5 121.5q233 0 365.5 -97.5t132.5 -277.5q0 -93 -53 -166t-140 -112z"/>
<glyph glyph-name="gamma" horiz-adv-x="1251" unicode="γ" d="M1253 1061l-428 -1008v-459h-407v459l-420 1008h424l203 -672l217 672h411z"/>
<glyph glyph-name="delta" d="M682 254q98 0 150.5 67t52.5 195q0 258 -199 258q-101 0 -153 -71.5t-52 -190.5q0 -124 51.5 -191t149.5 -67zM655 1182l303 -166q163 -88 248.5 -216t85.5 -282q0 -229 -155.5 -386t-456.5 -157q-290 0 -448 155t-158 382q0 176 94 311.5t274 194.5l-274 162v284h981 v-282h-494z" unicode="δ"/>
<glyph glyph-name="epsilon" horiz-adv-x="1122" unicode="ε" d="M1114 104q-164 -129 -452 -129q-277 0 -432.5 91.5t-155.5 244.5q0 158 188 240q-147 71 -147 233q0 141 145 221t406 80q252 0 405 -77l-153 -222q-111 58 -242 58q-158 0 -158 -80q0 -52 53 -77t193 -25v-228q-147 0 -213 -29t-66 -94q0 -94 193 -94q145 0 248 82z"/>
<glyph glyph-name="zeta" horiz-adv-x="942" unicode="ζ" d="M924 1229q-238 -259 -344.5 -420.5t-106.5 -308.5q0 -60 30.5 -110.5t131.5 -97.5t148.5 -80t80.5 -95.5t33 -163.5q0 -166 -118.5 -274.5t-307.5 -108.5h-113l70 264q170 0 170 76q0 32 -25 57t-133.5 58t-181 73t-126.5 132t-54 251q0 160 109 328t348 375h-412v282 h801v-237z"/>
<glyph glyph-name="eta" d="M1247 -406h-407v990q0 184 -144 184q-79 0 -122.5 -58.5t-43.5 -199.5v-510h-407v1061h381v-172h4q137 196 379 196q178 0 269 -105.5t91 -303.5v-1082z" unicode="η"/>
<glyph glyph-name="theta" d="M872 594h-376q8 -177 52.5 -258.5t133.5 -81.5q177 0 190 340zM870 891q-10 166 -53.5 243.5t-136.5 77.5q-91 0 -134 -76t-50 -245h374zM692 1491q272 0 431 -193t159 -555q0 -374 -152.5 -571t-447.5 -197q-288 0 -443 198.5t-155 565.5q0 752 608 752z" unicode="θ"/>
<glyph glyph-name="iota" horiz-adv-x="682" unicode="ι" d="M138 1062h407v-1062h-407v1062z"/>
<glyph glyph-name="kappa" d="M1358 0h-459l-215 426l-154 -150v-276h-407v1061h407v-352l306 352h499l-379 -371z" unicode="κ"/>
<glyph glyph-name="lambda" horiz-adv-x="1251" unicode="λ" d="M1249 0h-399l-221 662l-203 -662h-430l473 1083l-164 383h393z"/>
<glyph glyph-name="mu" d="M1243 0h-383v84q-65 -109 -164 -109q-121 0 -170 101v-477h-407v1462h407v-533q0 -72 8.5 -117t43 -80.5t106.5 -35.5q75 0 113.5 47t38.5 197v522h407v-1061z" unicode="μ"/>
<glyph glyph-name="nu" horiz-adv-x="1251" unicode="ν" d="M2 1062h424l206 -673l213 673h411l-451 -1062h-361z"/>
<glyph glyph-name="xi" horiz-adv-x="942" unicode="ξ" d="M829 745q-164 -10 -260 -87t-96 -207q0 -51 29 -93t127.5 -84.5t148 -74.5t84.5 -94.5t35 -163.5q0 -164 -117.5 -267.5t-308.5 -103.5h-113l70 264q77 0 120.5 21t43.5 55q0 30 -25 53t-132 52.5t-179 65.5t-125 119t-53 228q0 159 94.5 267t257.5 143 q-140 31 -214.5 112t-74.5 199q0 156 135 245t390 89h161v-271q-79 5 -133 5q-202 0 -202 -111q0 -52 62.5 -83.5t166.5 -31.5h108v-246z"/>
<glyph glyph-name="omicron" d="M481 529q0 -142 57.5 -210t144.5 -68q88 0 144.5 67t56.5 215q0 138 -57 205.5t-141 67.5q-89 0 -147 -68.5t-58 -208.5zM73 528q0 243 164 400.5t443 157.5q319 0 482 -185q131 -149 131 -367q0 -245 -162.5 -401.5t-449.5 -156.5q-256 0 -414 130q-194 161 -194 422z " unicode="ο"/>
<glyph glyph-name="pi" horiz-adv-x="1448" unicode="π" d="M1430 764h-134v-764h-407v764h-309v-764h-408v764h-152v297h1410v-297z"/>
<glyph glyph-name="rho" d="M717 276q80 0 123 67t43 179q0 262 -172 262q-86 0 -134.5 -65.5t-48.5 -192.5q0 -107 48 -178.5t141 -71.5zM125 -406v918q0 262 156.5 417.5t425.5 155.5q272 0 427.5 -157t155.5 -414q0 -246 -121 -392.5t-327 -146.5q-204 0 -310 117v-498h-407z" unicode="ρ"/>
<glyph glyph-name="sigma1" horiz-adv-x="1081" unicode="ς" d="M1069 1044l-86 -294q-143 34 -223 34q-119 0 -203 -79.5t-84 -196.5q0 -49 43 -97t234.5 -142t250 -167t58.5 -153q0 -180 -136 -279.5t-374 -99.5q-82 0 -215 8l51 266q96 -10 150 -10q163 0 163 68q0 34 -34.5 66t-169.5 85.5t-216 98.5t-140.5 124t-59.5 197 q0 268 192 440t498 172q170 0 301 -41z"/>
<glyph glyph-name="sigma" horiz-adv-x="1532" unicode="σ" d="M682 254q98 0 150.5 72t52.5 206q0 133 -54 204t-145 71q-101 0 -153 -77.5t-52 -201.5q0 -129 51.5 -201.5t149.5 -72.5zM1487 764h-240q45 -108 45 -229q0 -233 -155.5 -396.5t-456.5 -163.5q-289 0 -447.5 161.5t-158.5 391.5q0 238 159.5 397.5t446.5 159.5 q68 0 146 -12l65 -12h596v-297z"/>
<glyph glyph-name="tau" horiz-adv-x="1040" unicode="τ" d="M1018 764h-295v-764h-408v764h-295v297h998v-297z"/>
<glyph glyph-name="upsilon" d="M1243 430q0 -209 -149 -332t-418 -123q-265 0 -411 122.5t-146 332.5v631h407v-572q0 -196 154 -196q75 0 115.5 44t40.5 152v572h407v-631z" unicode="υ"/>
<glyph glyph-name="phi" horiz-adv-x="1819" unicode="φ" d="M1092 276q108 14 179.5 80t71.5 170q0 120 -44 189t-103 69q-56 0 -80 -45t-24 -139v-324zM700 281v346q0 258 108.5 358t346.5 100q278 0 429 -144t151 -415q0 -233 -175 -385t-468 -164v-383h-392v386q-278 13 -453 164t-175 382q0 260 141.5 399.5t460.5 159.5 l-64 -301q-63 -14 -105 -77t-42 -154q0 -117 68.5 -189t168.5 -83z"/>
<glyph glyph-name="chi" horiz-adv-x="1327" unicode="χ" d="M1313 -406h-445l-200 523l-244 -523h-410l379 766l-358 701h448l181 -488l202 488h420l-354 -701z"/>
<glyph glyph-name="psi" horiz-adv-x="1876" unicode="ψ" d="M1757 596q0 -297 -155 -456.5t-459 -159.5v-386h-408v383q-305 0 -460.5 159.5t-155.5 459.5v465h407v-486q0 -282 209 -282v768h408v-768q207 0 207 282v486h407v-465z"/>
<glyph glyph-name="endash" horiz-adv-x="1024" unicode="–" d="M-12 646h1048v-222h-1048v222z"/>
<glyph glyph-name="emdash" horiz-adv-x="2048" unicode="—" d="M-12 646h2072v-222h-2072v222z"/>
<glyph glyph-name="quoteleft" horiz-adv-x="569" unicode="‘" d="M505 675h-435v335q0 185 77 292t264 189l94 -178q-115 -54 -159 -107.5t-49 -126.5h208v-404z"/>
<glyph glyph-name="quoteright" horiz-adv-x="569" unicode="’" d="M70 1491h435v-335q0 -185 -77 -292.5t-263 -188.5l-95 178q116 54 159.5 107.5t48.5 126.5h-208v404z"/>
<glyph glyph-name="quotesinglbase" horiz-adv-x="569" unicode="‚" d="M70 404h435v-335q0 -185 -77 -292t-263 -189l-95 178q116 54 159.5 107.5t48.5 126.5h-208v404z"/>
<glyph glyph-name="quotedblleft" horiz-adv-x="1024" unicode="“" d="M490 675h-435v335q0 185 77 292t264 189l94 -178q-115 -54 -159 -107.5t-49 -126.5h208v-404zM997 675h-435v335q0 185 77 292t264 189l94 -178q-115 -54 -159 -107.5t-49 -126.5h208v-404z"/>
<glyph glyph-name="quotedblright" horiz-adv-x="1024" unicode="”" d="M55 1491h435v-335q0 -185 -77 -292.5t-263 -188.5l-95 178q116 54 159.5 107.5t48.5 126.5h-208v404zM562 1491h435v-335q0 -185 -77 -292.5t-263 -188.5l-95 178q116 54 159.5 107.5t48.5 126.5h-208v404z"/>
<glyph glyph-name="dagger" d="M511 1466h352v-380h374v-296h-374v-1197h-352v1197h-370v296h370v380z" unicode="†"/>
<glyph glyph-name="daggerdbl" d="M511 1466h352v-334h374v-297h-374v-612h374v-296h-374v-334h-352v334h-370v296h370v612h-370v297h370v334z" unicode="‡"/>
<glyph glyph-name="ellipsis" horiz-adv-x="2048" unicode="…" d="M124 408h435v-408h-435v408zM807 408h435v-408h-435v408zM1489 408h435v-408h-435v408z"/>
<glyph glyph-name="perthousand" horiz-adv-x="2048" unicode="‰" d="M1652 311q0 -148 26 -188t66 -40t66 40t26 188t-26 188.5t-66 40.5t-66 -40.5t-26 -188.5zM1442 312q0 200 83.5 293t219.5 93q135 0 219 -93t84 -283q0 -209 -83 -302.5t-220 -93.5q-136 0 -219.5 93.5t-83.5 292.5zM954 311q0 -148 26 -188t66 -40q39 0 65 40t26 188 t-26 188.5t-65 40.5q-40 0 -66 -40.5t-26 -188.5zM743 312q0 200 83.5 293t219.5 93t220 -93t84 -283q0 -209 -83.5 -302.5t-220.5 -93.5q-136 0 -219.5 93.5t-83.5 292.5zM874 1491h180l-572 -1565h-178zM211 1105q0 -148 26 -188t65 -40q40 0 66 40t26 188t-26 188t-66 40 q-39 0 -65 -40t-26 -188zM0 1105q0 200 83.5 293t219.5 93t220 -92.5t84 -282.5q0 -210 -83.5 -303t-220.5 -93q-136 0 -219.5 93t-83.5 292z"/>
<glyph glyph-name="minute" horiz-adv-x="623" unicode="′" d="M520 1491l-201 -401h-194l45 401h350z"/>
<glyph glyph-name="second" horiz-adv-x="1073" unicode="″" d="M514 1491l-201 -401h-194l45 401h350zM973 1491l-201 -401h-194l45 401h350z"/>
<glyph glyph-name="guilsinglleft" horiz-adv-x="682" unicode="‹" d="M342 996h312l-277 -463l277 -462h-312l-319 462z"/>
<glyph glyph-name="guilsinglright" horiz-adv-x="682" unicode="›" d="M340 996l319 -463l-319 -462h-312l277 462l-277 463h312z"/>
<glyph glyph-name="radicalex" horiz-adv-x="1024" unicode="‾" d="M1036 1768h-1048v102h1048v-102z"/>
<glyph glyph-name="fraction" horiz-adv-x="342" unicode="⁄" d="M523 1491h215l-922 -1544h-213z"/>
<glyph glyph-name="fraction" horiz-adv-x="342" unicode="∕" d="M523 1491h215l-922 -1544h-213z"/>
<glyph glyph-name="foursuperior" horiz-adv-x="811" unicode="⁴" d="M449 1007v219l-204 -219h204zM449 841h-408v189l418 461h214v-484h99v-166h-99v-121h-224v121z"/>
<glyph glyph-name="Euro" d="M999 684l-43 -182h-303q59 -187 256 -187q216 0 404 140v-373q-156 -107 -377 -107q-357 0 -528 163t-209 364h-181l48 182h110q-2 15 -2 53q0 40 2 58h-133l47 182h109q130 514 714 514q191 0 387 -102l-90 -363q-136 125 -284 125q-194 0 -262 -174h360l-43 -182h-352 q-2 -20 -2 -58v-53h372z" unicode="€"/>
<glyph glyph-name="trademark" horiz-adv-x="1946" unicode="™" d="M930 1466h357l113 -445l119 445h346v-815h-221v576l-153 -576h-185l-151 576v-576h-225v815zM36 1466h801v-194h-285v-621h-235v621h-281v194z"/>
<glyph glyph-name="arrowleft" horiz-adv-x="2048" unicode="←" d="M492 876h76q-81 -170 -195 -309h1595v-101h-1595q102 -102 198 -309h-78q-223 253 -414 341v45q177 71 413 333z"/>
<glyph glyph-name="arrowup" horiz-adv-x="1024" unicode="↑" d="M153 1050q262 236 333 413h46q87 -192 340 -415v-77q-207 96 -309 197v-1597h-101v1597q-139 -114 -309 -195v77z"/>
<glyph glyph-name="arrowright" horiz-adv-x="2048" unicode="→" d="M1555 876q237 -262 413 -333v-45q-191 -88 -414 -341h-77q95 207 197 309h-1595v101h1595q-114 139 -195 309h76z"/>
<glyph glyph-name="arrowdown" horiz-adv-x="1024" unicode="↓" d="M153 -16v76q170 -81 309 -195v1598h101v-1598q102 102 309 197v-77q-253 -223 -340 -414h-46q-71 176 -333 413z"/>
<glyph glyph-name="partialdiff" horiz-adv-x="1024" unicode="∂" d="M892 691q-34 103 -89.5 147.5t-124.5 44.5q-70 0 -136 -61q-86 -80 -143.5 -262t-57.5 -348q0 -97 30 -132.5t89 -35.5q99 0 200 117q166 195 232 530zM377 1150h-42q52 146 142.5 215t205.5 69q152 0 223 -102t71 -291q0 -360 -106 -620.5t-238 -365.5q-97 -78 -232 -78 q-97 0 -169 39.5t-109.5 117t-37.5 159.5q0 130 61.5 252.5t151.5 211t185.5 133t188.5 44.5q164 0 236 -150q8 82 8 127q0 171 -116 265q-71 58 -197 58q-81 0 -131.5 -20t-94.5 -64z"/>
<glyph glyph-name="product" horiz-adv-x="1685" unicode="∏" d="M1240 1413h-795v-1652q0 -83 37 -119t125 -36h36v-37h-597v37h35q88 0 125.5 36t37.5 119v1538q0 83 -37 119t-126 36h-35v37h1594v-37h-35q-88 0 -125 -36t-37 -119v-1538q0 -83 37 -119t125 -36h35v-37h-597v37h35q88 0 125 36t37 119v1652z"/>
<glyph glyph-name="summation" horiz-adv-x="1460" unicode="∑" d="M1356 -431h-1313v36l669 932l-669 917v37h1278l27 -336h-40q-16 137 -77.5 196.5t-171.5 59.5h-740l562 -788l-629 -878h818q70 0 153 28q57 18 94.5 66.5t62.5 152.5l40 -8z"/>
<glyph glyph-name="minus" horiz-adv-x="1352" unicode="−" d="M127 895h1091v-324h-1091v324z"/>
<glyph glyph-name="radical" horiz-adv-x="1124" unicode="√" d="M1050 1869h74l-312 -1947l-496 1021l-198 -91l-34 64l301 151l405 -823z"/>
<glyph glyph-name="infinity" horiz-adv-x="1195" unicode="∞" d="M462 737q-100 141 -190 141q-46 0 -79.5 -37t-33.5 -103q0 -68 33 -106t80 -38q39 0 70 21q54 36 120 122zM641 735q67 -103 94 -134.5t62.5 -50t76.5 -18.5q76 0 117 59t41 146q0 94 -45 146t-110 52q-54 0 -106 -39t-130 -161zM548 854q74 121 151 174.5t172 53.5 q132 0 219.5 -93.5t87.5 -255.5t-87.5 -255.5t-219.5 -93.5q-94 0 -171 53t-152 175q-60 -84 -138 -128t-149 -44q-101 0 -171.5 78.5t-70.5 214.5t70.5 214t171.5 78q71 0 149 -44t138 -127z"/>
<glyph glyph-name="intersection" horiz-adv-x="1472" unicode="∩" d="M302 0h-110v560q0 118 2 228t20 192t60 150t114 129q74 61 164 93t184 32q144 0 268 -70t186 -168t76 -206t15 -380v-560h-109v566q0 232 -12 334t-60 182q-48 82 -150 139t-214 57q-114 0 -216 -58t-148 -137t-58 -181t-12 -336v-566z"/>
<glyph glyph-name="approxequal" horiz-adv-x="1352" unicode="≈" d="M1246 731v-326q-115 -92 -186 -123t-147 -31q-58 0 -116.5 17t-183 80t-196.5 63q-154 0 -318 -160v329q93 83 174 117.5t177 34.5q49 0 103 -15.5t158.5 -66t148.5 -63.5t83 -13q134 0 303 157zM1246 1213v-325q-115 -93 -186 -123.5t-147 -30.5q-58 0 -116.5 17 t-183 80t-196.5 63q-154 0 -318 -161v329q93 83 174 118t177 35q49 0 103 -15.5t158.5 -66.5t148.5 -63.5t83 -12.5q134 0 303 156z"/>
<glyph glyph-name="notequal" horiz-adv-x="1352" unicode="≠" d="M98 1141h595l202 515h276l-201 -515h275v-324h-399l-67 -168h466v-324h-593l-203 -517h-279l203 517h-275v324h403l65 168h-468v324z"/>
<glyph glyph-name="equivalence" horiz-adv-x="1229" unicode="≡" d="M1102 517v-123h-975v123h975zM1102 759v-123h-975v123h975zM1102 1000v-123h-975v123h975z"/>
<glyph glyph-name="lessequal" horiz-adv-x="1352" unicode="≤" d="M98 200h1149v-324h-1149v324zM1247 273l-1149 470v294l1149 475v-350l-703 -271l703 -268v-350z"/>
<glyph glyph-name="greaterequal" horiz-adv-x="1352" unicode="≥" d="M1254 200v-324h-1149v324h1149zM105 273v350l703 268l-703 271v350l1149 -475v-294z"/>
<glyph glyph-name="lozenge" horiz-adv-x="1012" unicode="◊" d="M495 1325l-340 -616l340 -615l359 615zM549 1422l418 -713l-418 -709h-111l-391 709l391 713h111z"/>
<glyph glyph-name="spade" horiz-adv-x="1085" unicode="♠" d="M544 1231q18 -82 64 -169t204 -230q122 -111 170 -181t47 -155q0 -93 -65 -157t-154 -64q-155 0 -255 190q-1 -229 101 -325t277 -103l7 -37h-792l7 37q177 0 281 102t103 293q0 11 -1 33q-90 -190 -261 -190q-91 0 -155 65t-65 155q1 92 53 165t136 141q261 215 298 430 z"/>
<glyph glyph-name="club" horiz-adv-x="1352" unicode="♣" d="M1102 0h-848l8 34q154 32 220 68t124 139t59 228l-1 42q-54 -116 -143 -177t-185 -61q-114 1 -196 81t-81 199q1 111 73 193t169 82q63 0 163 -51q-67 107 -67 182q0 113 79 193t197 79q115 0 197 -78t82 -189q0 -94 -69 -187q106 53 162 53q105 0 176 -81t71 -192 q0 -119 -81 -201t-193 -82q-78 0 -167 50t-165 187q4 -157 48 -251t122 -144q78 -51 238 -82z"/>
<glyph glyph-name="heart" horiz-adv-x="1208" unicode="♥" d="M606 -24q-32 122 -92 228t-276 390q-101 133 -140 212t-39 163q0 109 74 185t183 76q206 0 290 -251q34 127 113 189t172 63q109 0 183 -75t75 -175q-1 -88 -41 -183t-173 -262q-285 -360 -329 -560z"/>
<glyph glyph-name="diamond" horiz-adv-x="1045" unicode="♦" d="M520 1231q193 -323 461 -627q-52 -52 -214 -265t-247 -363q-101 190 -457 628q324 383 457 627z"/>
</font>
</defs>
</svg>
